<svg width="320" height="166" viewBox="0 0 320 166" fill="none" xmlns="http://www.w3.org/2000/svg">
<path d="M151.994 106.984H263.055" stroke="#2C373D" stroke-width="2" stroke-miterlimit="10" stroke-linecap="round" stroke-linejoin="round"/>
<path d="M302.573 81.2051L279.933 107.889C278.886 109.107 278.28 110.546 278.06 112.152L277.288 118.407H33.3097C32.814 118.407 32.4284 118.02 32.4284 117.522V109.384C32.4284 109.328 32.4284 109.218 32.3733 109.218L22.1272 82.2016C21.2458 79.8211 22.9535 77.3299 25.4874 77.3299H34.081C34.5767 77.3299 34.9623 76.9423 34.9623 76.4441V55.407C34.9623 54.9088 35.3479 54.5212 35.8437 54.5212H43.3906C43.8864 54.5212 44.272 54.1337 44.272 53.6355V49.4834C44.272 48.9852 44.6576 48.5977 45.1534 48.5977H49.2849C49.7806 48.5977 50.1663 48.9852 50.1663 49.4834V53.6355C50.1663 54.1337 50.5518 54.5212 51.0476 54.5212H79.1418C79.6376 54.5212 80.0232 54.9088 80.0232 55.407V76.4441C80.0232 76.9423 80.4088 77.3299 80.9046 77.3299H87.0743C87.515 77.3299 87.9006 77.662 87.9006 78.1049C88.2862 82.257 91.8117 85.5232 96.0534 85.5232H250.076C254.317 85.5232 257.843 82.257 258.228 78.1049C258.283 77.662 258.614 77.3299 259.055 77.3299H300.7C302.573 77.2745 303.73 79.5443 302.573 81.2051Z" stroke="#2C373D" stroke-width="2" stroke-miterlimit="10" stroke-linejoin="round"/>
<path d="M291.882 84.1371C291.882 85.3373 290.909 86.3102 289.708 86.3102C288.508 86.3102 287.535 85.3373 287.535 84.1371C287.535 82.9368 288.508 81.9639 289.708 81.9639C290.909 81.9639 291.882 82.9368 291.882 84.1371Z" stroke="#2C373D" stroke-width="2"/>
<path d="M160.821 72.7322H136.451C135.79 72.7322 135.295 73.2817 135.295 73.8862V82.349C135.295 83.0084 135.845 83.503 136.451 83.503H160.821C161.481 83.503 161.976 82.9534 161.976 82.349V73.8862C162.031 73.2817 161.481 72.7322 160.821 72.7322ZM131.885 60.1479H107.515C106.854 60.1479 106.359 60.6975 106.359 61.302V69.7647C106.359 70.4242 106.909 70.9187 107.515 70.9187H131.885C132.545 70.9187 133.04 70.3692 133.04 69.7647V61.302C133.04 60.6425 132.545 60.1479 131.885 60.1479ZM160.821 60.1479H136.451C135.79 60.1479 135.295 60.6975 135.295 61.302V69.7647C135.295 70.4242 135.845 70.9187 136.451 70.9187H160.821C161.481 70.9187 161.976 70.3692 161.976 69.7647V61.302C162.031 60.6425 161.481 60.1479 160.821 60.1479ZM131.885 72.7322H107.515C106.854 72.7322 106.359 73.2817 106.359 73.8862V82.349C106.359 83.0084 106.909 83.503 107.515 83.503H131.885C132.545 83.503 133.04 82.9534 133.04 82.349V73.8862C133.04 73.2817 132.545 72.7322 131.885 72.7322ZM240.752 60.1479H228.924C228.264 60.1479 227.769 60.6975 227.769 61.302V82.349C227.769 83.0084 228.319 83.503 228.924 83.503H240.752C241.412 83.503 241.907 82.9534 241.907 82.349V61.302C241.907 60.6425 241.412 60.1479 240.752 60.1479ZM223.918 60.1479H212.091C211.431 60.1479 210.936 60.6975 210.936 61.302V82.349C210.936 83.0084 211.486 83.503 212.091 83.503H223.918C224.579 83.503 225.074 82.9534 225.074 82.349V61.302C225.074 60.6425 224.579 60.1479 223.918 60.1479ZM206.92 60.1479H195.093C194.432 60.1479 193.937 60.6975 193.937 61.302V82.349C193.937 83.0084 194.487 83.503 195.093 83.503H206.92C207.58 83.503 208.075 82.9534 208.075 82.349V61.302C208.13 60.6425 207.58 60.1479 206.92 60.1479ZM189.921 60.1479H165.551C164.891 60.1479 164.396 60.6975 164.396 61.302V69.7647C164.396 70.4242 164.946 70.9187 165.551 70.9187H189.921C190.582 70.9187 191.077 70.3692 191.077 69.7647V61.302C191.077 60.6425 190.527 60.1479 189.921 60.1479ZM189.921 72.7322H165.551C164.891 72.7322 164.396 73.2817 164.396 73.8862V82.349C164.396 83.0084 164.946 83.503 165.551 83.503H189.921C190.582 83.503 191.077 82.9534 191.077 82.349V73.8862C191.077 73.2817 190.527 72.7322 189.921 72.7322Z" fill="url(#paint0_linear)"/>
<path d="M76.4717 58.7517H72.0293V63.1942H76.4717V58.7517Z" stroke="#2C373D" stroke-width="2" stroke-miterlimit="10" stroke-linejoin="round"/>
<path d="M69.4913 58.7517H65.0488V63.1942H69.4913V58.7517Z" stroke="#2C373D" stroke-width="2" stroke-miterlimit="10" stroke-linejoin="round"/>
<path d="M62.5089 58.7517H58.0664V63.1942H62.5089V58.7517Z" stroke="#2C373D" stroke-width="2" stroke-miterlimit="10" stroke-linejoin="round"/>
<path d="M55.5303 58.7517H51.0879V63.1942H55.5303V58.7517Z" stroke="#2C373D" stroke-width="2" stroke-miterlimit="10" stroke-linejoin="round"/>
<path d="M152.697 144.969L148.841 150.704H122.789L119.815 154.582H117.667C116.621 154.582 115.684 153.926 115.299 152.998C114.913 152.178 114.418 151.359 113.757 150.704C112.159 148.956 109.791 147.809 107.203 147.809C104.614 147.809 102.301 148.901 100.648 150.704C99.9874 151.414 99.4917 152.178 99.1061 153.052C98.7206 153.981 97.8393 154.582 96.7929 154.582H96.7378C95.6913 154.582 94.8101 153.926 94.4245 152.998C94.0941 152.178 93.5984 151.359 92.9925 150.704C91.3953 148.792 88.9719 147.645 86.2731 147.645C83.5743 147.645 81.1509 148.847 79.5536 150.704C78.9478 151.414 78.397 152.288 78.0665 153.162C77.7361 154.036 76.9099 154.582 75.9736 154.582H74.156L71.7326 150.704H54.3281V144.969H84.9512V141.254H92.1113V144.969H140.965V141.254H147.85V144.969H152.697V144.969Z" stroke="#2C373D" stroke-width="2" stroke-miterlimit="10" stroke-linejoin="round"/>
<path d="M173.004 142.524H165.389V143.793H173.004V142.524Z" fill="#2C373D"/>
<path d="M234.319 157.216C234.429 159.415 232.668 161.283 230.413 161.283H225.242V157.876C225.242 152.655 220.951 148.204 215.725 148.314C210.664 148.424 206.538 152.545 206.538 157.656V161.283H176.667V159.36C176.667 154.139 172.376 149.688 167.15 149.743C162.089 149.853 157.963 153.974 157.963 159.085V159.689C157.963 160.569 157.248 161.228 156.423 161.228H155.268V151.062C155.268 148.589 157.303 146.556 159.778 146.556H165.72H173.146H198.176L198.726 113.804C198.726 112.979 199.442 112.265 200.267 112.265L216.55 113.584C225.682 114.353 232.338 121.662 233.108 130.784L234.319 157.216ZM228.928 134.081C229.643 134.081 230.138 133.422 230.028 132.762L228.928 127.432C228.433 125.014 226.287 123.255 223.867 123.255H219.301V134.081H228.928Z" fill="white"/>
<path d="M230.025 132.762C230.191 133.422 229.64 134.081 228.925 134.081H219.298V123.255H223.864C226.34 123.255 228.43 125.014 228.925 127.432L230.025 132.762Z" fill="white"/>
<path d="M230.467 161.283C232.668 161.283 234.483 159.414 234.373 157.216L233.163 130.894C232.338 121.827 225.681 114.463 216.605 113.694L200.321 112.375C199.496 112.375 198.781 113.034 198.781 113.913L198.231 146.665H173.201H165.774H159.833C157.357 146.665 155.322 148.699 155.322 151.171V161.338H156.477C157.357 161.338 158.018 160.623 158.018 159.799V159.195C158.018 154.084 162.088 149.963 167.204 149.853C172.431 149.743 176.721 154.194 176.721 159.469V161.393H206.593V157.766C206.593 152.655 210.663 148.534 215.779 148.424C221.005 148.314 225.296 152.765 225.296 157.986V161.338H230.467V161.283Z" stroke="#2C373D" stroke-width="2" stroke-miterlimit="10" stroke-linejoin="round"/>
<path d="M219.298 134.081V123.255H223.864C226.34 123.255 228.43 125.014 228.925 127.432L230.025 132.762C230.19 133.422 229.64 134.081 228.925 134.081H219.298Z" stroke="#2C373D" stroke-width="2" stroke-miterlimit="10" stroke-linejoin="round"/>
<path d="M168.246 162.832C171.576 162.832 174.275 159.991 174.275 156.486C174.275 152.981 171.576 150.139 168.246 150.139C164.916 150.139 162.217 152.981 162.217 156.486C162.217 159.991 164.916 162.832 168.246 162.832Z" stroke="#2C373D" stroke-width="2" stroke-miterlimit="10" stroke-linejoin="round"/>
<path d="M168.245 159.322C169.822 159.322 171.1 158.043 171.1 156.466C171.1 154.889 169.822 153.61 168.245 153.61C166.667 153.61 165.389 154.889 165.389 156.466C165.389 158.043 166.667 159.322 168.245 159.322Z" stroke="#2C373D" stroke-width="2" stroke-miterlimit="10" stroke-linejoin="round"/>
<path d="M217.111 162.832C220.441 162.832 223.14 159.991 223.14 156.486C223.14 152.981 220.441 150.139 217.111 150.139C213.781 150.139 211.082 152.981 211.082 156.486C211.082 159.991 213.781 162.832 217.111 162.832Z" stroke="#2C373D" stroke-width="2" stroke-miterlimit="10" stroke-linejoin="round"/>
<path d="M217.112 159.322C218.689 159.322 219.968 158.043 219.968 156.466C219.968 154.889 218.689 153.61 217.112 153.61C215.534 153.61 214.256 154.889 214.256 156.466C214.256 158.043 215.534 159.322 217.112 159.322Z" stroke="#2C373D" stroke-width="2" stroke-miterlimit="10" stroke-linejoin="round"/>
<path d="M194.447 98.7339H55.6774C54.5751 98.7339 53.6934 99.6208 53.6934 100.729V140.528C53.6934 141.637 54.5751 142.524 55.6774 142.524H84.3351H147.327H165.9H173.34H194.502C195.604 142.524 196.486 141.637 196.486 140.528V100.729C196.486 99.6208 195.549 98.7339 194.447 98.7339ZM91.4996 142.524H140.438H91.4996Z" fill="url(#paint1_linear)"/>
<path d="M60.5975 134.908H58.8452C58.4663 134.908 58.1348 134.527 58.1348 134.091V103.359C58.1348 102.923 58.4663 102.542 58.8452 102.542H60.5975C60.9764 102.542 61.3079 102.923 61.3079 103.359V134.091C61.3079 134.527 61.0238 134.908 60.5975 134.908Z" fill="white"/>
<path d="M68.7053 134.908H66.6025C66.1478 134.908 65.75 134.527 65.75 134.091V103.359C65.75 102.923 66.1478 102.542 66.6025 102.542H68.7053C69.16 102.542 69.5578 102.923 69.5578 103.359V134.091C69.5578 134.527 69.16 134.908 68.7053 134.908Z" fill="white"/>
<path d="M76.3225 134.908H74.2197C73.765 134.908 73.3672 134.527 73.3672 134.091V103.359C73.3672 102.923 73.765 102.542 74.2197 102.542H76.3225C76.7772 102.542 77.175 102.923 77.175 103.359V134.091C77.175 134.527 76.7772 134.908 76.3225 134.908Z" fill="white"/>
<path d="M84.5705 134.908H82.4677C82.0131 134.908 81.6152 134.527 81.6152 134.091V103.359C81.6152 102.923 82.0131 102.542 82.4677 102.542H84.5705C85.0252 102.542 85.423 102.923 85.423 103.359V134.091C85.423 134.527 85.082 134.908 84.5705 134.908Z" fill="white"/>
<path d="M92.8206 135.543H90.7177C90.2631 135.543 89.8652 135.154 89.8652 134.709V103.375C89.8652 102.931 90.2631 102.542 90.7177 102.542H92.8206C93.2752 102.542 93.673 102.931 93.673 103.375V134.709C93.673 135.209 93.2752 135.543 92.8206 135.543Z" fill="white"/>
<path d="M101.073 134.908H98.9697C98.515 134.908 98.1172 134.527 98.1172 134.091V103.359C98.1172 102.923 98.515 102.542 98.9697 102.542H101.073C101.527 102.542 101.925 102.923 101.925 103.359V134.091C101.925 134.527 101.527 134.908 101.073 134.908Z" fill="white"/>
<path d="M109.465 134.908H107.712C107.333 134.908 107.002 134.527 107.002 134.091V103.359C107.002 102.923 107.333 102.542 107.712 102.542H109.465C109.844 102.542 110.175 102.923 110.175 103.359V134.091C110.175 134.527 109.844 134.908 109.465 134.908Z" fill="white"/>
<path d="M117.715 134.908H115.962C115.583 134.908 115.252 134.527 115.252 134.091V103.359C115.252 102.923 115.583 102.542 115.962 102.542H117.715C118.094 102.542 118.425 102.923 118.425 103.359V134.091C118.425 134.527 118.094 134.908 117.715 134.908Z" fill="white"/>
<path d="M126.459 134.908H124.356C123.902 134.908 123.504 134.527 123.504 134.091V103.359C123.504 102.923 123.902 102.542 124.356 102.542H126.459C126.914 102.542 127.312 102.923 127.312 103.359V134.091C127.312 134.527 126.914 134.908 126.459 134.908Z" fill="white"/>
<path d="M134.074 135.543H131.972C131.517 135.543 131.119 135.154 131.119 134.709V103.375C131.119 102.931 131.517 102.542 131.972 102.542H134.074C134.529 102.542 134.927 102.931 134.927 103.375V134.709C134.927 135.209 134.529 135.543 134.074 135.543Z" fill="white"/>
<path d="M142.324 134.908H140.222C139.767 134.908 139.369 134.527 139.369 134.091V103.359C139.369 102.923 139.767 102.542 140.222 102.542H142.324C142.779 102.542 143.177 102.923 143.177 103.359V134.091C143.177 134.527 142.779 134.908 142.324 134.908Z" fill="white"/>
<path d="M149.94 135.543H147.837C147.382 135.543 146.984 135.154 146.984 134.709V103.375C146.984 102.931 147.382 102.542 147.837 102.542H149.94C150.394 102.542 150.792 102.931 150.792 103.375V134.709C150.792 135.209 150.451 135.543 149.94 135.543Z" fill="white"/>
<path d="M158.19 134.908H156.087C155.632 134.908 155.234 134.527 155.234 134.091V103.359C155.234 102.923 155.632 102.542 156.087 102.542H158.19C158.644 102.542 159.042 102.923 159.042 103.359V134.091C159.042 134.527 158.644 134.908 158.19 134.908Z" fill="white"/>
<path d="M166.44 135.543H164.337C163.882 135.543 163.484 135.154 163.484 134.709V103.375C163.484 102.931 163.882 102.542 164.337 102.542H166.44C166.894 102.542 167.292 102.931 167.292 103.375V134.709C167.292 135.209 166.951 135.543 166.44 135.543Z" fill="white"/>
<path d="M174.197 134.908H172.445C172.066 134.908 171.734 134.527 171.734 134.091V103.359C171.734 102.923 172.066 102.542 172.445 102.542H174.197C174.576 102.542 174.908 102.923 174.908 103.359V134.091C174.908 134.581 174.576 134.908 174.197 134.908Z" fill="white"/>
<path d="M182.307 134.908H180.204C179.749 134.908 179.352 134.527 179.352 134.091V103.359C179.352 102.923 179.749 102.542 180.204 102.542H182.307C182.762 102.542 183.159 102.923 183.159 103.359V134.091C183.159 134.527 182.762 134.908 182.307 134.908Z" fill="white"/>
<path d="M190.557 134.908H188.454C187.999 134.908 187.602 134.527 187.602 134.091V103.359C187.602 102.923 187.999 102.542 188.454 102.542H190.557C191.012 102.542 191.409 102.923 191.409 103.359V134.091C191.409 134.581 191.012 134.908 190.557 134.908Z" fill="white"/>
<path d="M107.32 162.832C110.65 162.832 113.349 159.99 113.349 156.486C113.349 152.981 110.65 150.139 107.32 150.139C103.99 150.139 101.291 152.981 101.291 156.486C101.291 159.99 103.99 162.832 107.32 162.832Z" stroke="#2C373D" stroke-width="2" stroke-miterlimit="10" stroke-linejoin="round"/>
<path d="M107.319 159.322C108.896 159.322 110.175 158.043 110.175 156.466C110.175 154.889 108.896 153.61 107.319 153.61C105.742 153.61 104.463 154.889 104.463 156.466C104.463 158.043 105.742 159.322 107.319 159.322Z" stroke="#2C373D" stroke-width="2" stroke-miterlimit="10" stroke-linejoin="round"/>
<path d="M86.3767 162.832C89.7064 162.832 92.4057 159.99 92.4057 156.486C92.4057 152.981 89.7064 150.139 86.3767 150.139C83.0469 150.139 80.3477 152.981 80.3477 156.486C80.3477 159.99 83.0469 162.832 86.3767 162.832Z" stroke="#2C373D" stroke-width="2" stroke-miterlimit="10" stroke-linejoin="round"/>
<path d="M86.3773 159.322C87.9546 159.322 89.2332 158.043 89.2332 156.466C89.2332 154.889 87.9546 153.61 86.3773 153.61C84.8001 153.61 83.5215 154.889 83.5215 156.466C83.5215 158.043 84.8001 159.322 86.3773 159.322Z" stroke="#2C373D" stroke-width="2" stroke-miterlimit="10" stroke-linejoin="round"/>
<path d="M248.948 35.9297H220.208C220.208 36.9245 219.384 37.8088 218.395 37.8088H196.249C195.26 37.8088 194.436 36.9798 194.436 35.985V35.9297C194.436 35.9297 183.336 36.3166 176.357 34.548C172.4 33.4979 171.026 33.0005 166.96 31.3977C151.903 25.3734 142.616 23.1627 142.616 23.1627C142.616 23.1627 148.771 22.2231 146.848 17.6911C145.859 15.2593 139.539 1 139.539 1L145.419 1.44214C147.727 1.60795 149.815 2.71332 151.574 4.26084C169.763 20.1782 168.059 20.8967 177.95 20.8967C190.534 20.8967 219.384 21.0072 233.342 21.0072C239.386 21.0072 250.761 20.4545 254.498 25.9814L257.521 27.142C260.213 28.1368 262.191 35.377 248.948 35.9297Z" fill="white" stroke="#2C373D" stroke-width="1.5" stroke-miterlimit="10" stroke-linejoin="round"/>
<path d="M255.042 26.3855H248.665C248.335 26.3855 248.061 25.9624 248.061 25.4688V24.27C248.061 24.0585 248.17 23.8469 248.335 23.8469H252.513" stroke="#2C373D" stroke-width="1.5" stroke-miterlimit="10" stroke-linejoin="round"/>
<path d="M206.302 31.7374L202.947 31.1329V28.2204L206.302 27.6709" fill="white"/>
<path d="M206.302 31.7374L202.947 31.1329V28.2204L206.302 27.6709" stroke="#2C373D" stroke-width="1.5" stroke-miterlimit="10" stroke-linejoin="round"/>
<path d="M215.104 33.1663H208.888C207.018 33.1663 205.532 31.6826 205.532 29.8142C205.532 27.9458 207.018 26.462 208.888 26.462H215.104C216.315 26.462 217.25 27.4512 217.25 28.6052V31.0231C217.305 32.1771 216.315 33.1663 215.104 33.1663Z" fill="white" stroke="#2C373D" stroke-width="1.5" stroke-miterlimit="10" stroke-linejoin="round"/>
<path d="M213.675 26.407H209.769V33.1112H213.675V26.407Z" stroke="#2C373D" stroke-width="1.5" stroke-miterlimit="10" stroke-linejoin="round"/>
<path d="M183.329 29.8563L205.542 20.9714" stroke="#2C373D" stroke-width="1.5" stroke-miterlimit="10" stroke-linejoin="round"/>
<path d="M164.833 27.717C165.27 27.6025 165.708 27.6597 166.09 27.7742C168.714 28.862 178.117 33.4993 188.284 33.442C189.487 33.442 190.362 34.7015 190.307 35.9038C190.307 35.9038 181.888 36.0183 174.071 33.7855C168.714 32.297 164.45 30.2932 161.99 29.2055C161.662 29.0337 161.662 28.5185 162.045 28.404L164.833 27.717Z" fill="white" stroke="#2C373D" stroke-width="1.5" stroke-miterlimit="10"/>
<path d="M194.751 34.6355L195.417 34.1162C196.083 33.597 196.749 33.3662 197.581 33.3662H215.06" stroke="#2C373D" stroke-width="1.5" stroke-miterlimit="10" stroke-linecap="round" stroke-linejoin="round"/>
<path d="M190.309 27.0199H194.827C195.047 27.0199 195.268 26.9609 195.488 26.9019L207.444 21.9429H202.485" stroke="#2C373D" stroke-width="1.5" stroke-miterlimit="10" stroke-linejoin="round"/>
<path d="M197.894 30.8279C208.764 27.7477 219.414 25.5636 231.217 23.8835C233.688 23.5475 233.084 20.4114 230.998 20.6914H231.053C218.042 22.7635 207.117 25.6756 197.291 29.1478" fill="white"/>
<path d="M197.894 30.8279C208.764 27.7477 219.414 25.5636 231.217 23.8835C233.688 23.5475 233.084 20.4114 230.998 20.6914H231.053C218.042 22.7635 207.117 25.6756 197.291 29.1478" stroke="#2C373D" stroke-width="1.5" stroke-miterlimit="10" stroke-linejoin="round"/>
<path d="M142.077 22.9777L146.818 22.4374L163.741 21.9512C168.372 21.7891 168.923 24.0583 164.017 24.2203C162.032 24.2744 154.37 24.5985 147.7 24.4364C144.006 24.3284 142.793 23.9502 142.793 23.9502L142.077 22.9777Z" stroke="#2C373D" stroke-width="1.5" stroke-miterlimit="10" stroke-linejoin="round"/>
<path d="M177.617 29.9893C181.671 29.2523 193.779 28.4628 197.334 29.2523C199 29.6208 199.222 31.2 196.39 31.4106C193.501 31.6211 183.893 31.2 177.617 29.9893Z" fill="white" stroke="#2C373D" stroke-width="1.5" stroke-miterlimit="10" stroke-linejoin="round"/>
<path fill-rule="evenodd" clip-rule="evenodd" d="M137 23.814C139.207 22.8189 146.773 22.266 148.927 22.7636C149.926 22.9847 150.136 24.1458 148.402 24.3669C146.721 24.5881 140.888 24.5328 137 23.814Z" fill="white" stroke="#2C373D" stroke-width="1.5" stroke-miterlimit="10" stroke-linejoin="round"/>
<path d="M237.835 27.6545H239.246C239.575 27.6545 239.81 27.9532 239.81 28.3713V32.0148C239.81 32.433 239.575 32.7316 239.246 32.7316H237.835C237.506 32.7316 237.271 32.433 237.271 32.0148V28.3713C237.271 27.9532 237.506 27.6545 237.835 27.6545Z" stroke="#2C373D" stroke-width="1.5" stroke-miterlimit="10" stroke-linejoin="round"/>
<path d="M140.174 3.53857L146.94 18.7698H153.432C153.982 18.7698 154.312 18.1606 154.037 17.7175L146.28 4.75707C145.895 4.14782 145.29 3.76012 144.575 3.76012L140.174 3.53857Z" stroke="#2C373D" stroke-width="1.5" stroke-miterlimit="10" stroke-linejoin="round"/>
<path d="M152.232 14.3273H150.963" stroke="#2C373D" stroke-width="1.5" stroke-miterlimit="10" stroke-linecap="round" stroke-linejoin="round"/>
<path d="M148.423 7.98083H147.153" stroke="#2C373D" stroke-width="1.5" stroke-miterlimit="10" stroke-linecap="round" stroke-linejoin="round"/>
<path d="M313.893 164.101H43.5391" stroke="#2C373D" stroke-width="2" stroke-miterlimit="10" stroke-linecap="round" stroke-linejoin="round"/>
<path d="M37.8278 164.101H8" stroke="#2C373D" stroke-width="2" stroke-miterlimit="10" stroke-linecap="round" stroke-linejoin="round"/>
<path d="M31.4121 77.1562H70.1248" stroke="#2C373D" stroke-width="2" stroke-miterlimit="10" stroke-linecap="round" stroke-linejoin="round"/>
<path d="M295.422 134.274L292.52 132.545C289.508 130.762 285.784 130.708 282.717 132.437L282.114 132.761C278.993 134.49 275.214 134.436 272.147 132.545C269.19 130.762 265.521 130.6 262.454 132.221L261.03 132.977C257.963 134.598 254.294 134.436 251.336 132.653L251.227 132.599C248.269 130.762 244.545 130.654 241.479 132.329" stroke="#008DD2" stroke-width="2" stroke-miterlimit="10" stroke-linecap="round" stroke-linejoin="round"/>
<path d="M33.0971 118.574C30.1226 116.632 26.4451 116.573 23.4165 118.457L22.8215 118.81C19.7389 120.694 16.0072 120.635 12.9786 118.574C10.0582 116.632 6.43474 116.455 3.40615 118.221L2 119.045" stroke="#008DD2" stroke-width="2" stroke-miterlimit="10" stroke-linecap="round" stroke-linejoin="round"/>
<path d="M277.018 118.305C278.545 118.246 280.072 117.775 281.436 116.951L282.036 116.597C285.145 114.714 288.909 114.773 291.964 116.833C294.91 118.775 298.565 118.952 301.619 117.186L303.038 116.362" stroke="#008DD2" stroke-width="2" stroke-miterlimit="10" stroke-linecap="round" stroke-linejoin="round"/>
<path d="M57.4336 33.3662V54.3092" stroke="#2C373D" stroke-width="2" stroke-miterlimit="10" stroke-linecap="round" stroke-linejoin="round"/>
<path d="M59.8869 137.529C56.845 135.642 53.084 135.585 49.9868 137.415L49.3784 137.758C46.2259 139.588 42.4096 139.531 39.3124 137.529C36.3257 135.642 32.6201 135.471 29.5229 137.186L28.0849 137.987C24.9876 139.702 21.282 139.531 18.2954 137.644L18.1847 137.587C15.6959 135.985 12.654 135.642 9.94387 136.557C8.39525 137.072 6.79132 137.243 5.18739 137.243H-15" stroke="#008DD2" stroke-width="2" stroke-miterlimit="10" stroke-linecap="round" stroke-linejoin="round"/>
<path d="M343.019 116.863L316.304 116.754C314.494 116.754 312.684 116.369 310.928 115.765C308.405 114.886 305.607 115.106 303.194 116.369L301.768 117.138" stroke="#008DD2" stroke-width="2" stroke-miterlimit="10" stroke-linecap="round" stroke-linejoin="round"/>
<defs>
<linearGradient id="paint0_linear" x1="106.356" y1="71.8465" x2="241.929" y2="71.8465" gradientUnits="userSpaceOnUse">
<stop stop-color="#008DD2"/>
<stop offset="1" stop-color="#003C5F"/>
</linearGradient>
<linearGradient id="paint1_linear" x1="53.663" y1="120.625" x2="196.467" y2="120.625" gradientUnits="userSpaceOnUse">
<stop stop-color="#1B75BC"/>
<stop offset="1" stop-color="#003C5F"/>
</linearGradient>
</defs>
</svg>
