<svg width="555" height="219" viewBox="0 0 555 219" fill="none" xmlns="http://www.w3.org/2000/svg">
<path d="M300.776 141.438H447.246" stroke="#2C373D" stroke-width="3" stroke-miterlimit="10" stroke-linecap="round" stroke-linejoin="round"/>
<path d="M499.365 107.44L469.506 142.631C468.126 144.237 467.327 146.136 467.036 148.253L466.019 156.503H144.255C143.601 156.503 143.093 155.992 143.093 155.335V144.602C143.093 144.529 143.093 144.383 143.02 144.383L129.507 108.754C128.345 105.615 130.597 102.329 133.939 102.329H145.272C145.926 102.329 146.434 101.818 146.434 101.161V73.4169C146.434 72.7598 146.943 72.2487 147.597 72.2487H157.55C158.204 72.2487 158.712 71.7376 158.712 71.0805V65.6047C158.712 64.9476 159.221 64.4365 159.875 64.4365H165.323C165.977 64.4365 166.486 64.9476 166.486 65.6047V71.0805C166.486 71.7376 166.994 72.2487 167.648 72.2487H204.699C205.353 72.2487 205.862 72.7598 205.862 73.4169V101.161C205.862 101.818 206.37 102.329 207.024 102.329H215.161C215.742 102.329 216.25 102.767 216.25 103.351C216.759 108.827 221.409 113.135 227.003 113.135H430.13C435.724 113.135 440.374 108.827 440.882 103.351C440.955 102.767 441.391 102.329 441.972 102.329H496.895C499.365 102.256 500.891 105.25 499.365 107.44Z" stroke="#2C373D" stroke-width="3" stroke-miterlimit="10" stroke-linejoin="round"/>
<path d="M485.084 111.307C485.084 112.789 483.882 113.992 482.399 113.992C480.916 113.992 479.714 112.789 479.714 111.307C479.714 109.824 480.916 108.622 482.399 108.622C483.882 108.622 485.084 109.824 485.084 111.307Z" stroke="#2C373D" stroke-width="3"/>
<path d="M312.418 96.2655H280.278C279.407 96.2655 278.754 96.9903 278.754 97.7875V108.948C278.754 109.818 279.48 110.47 280.278 110.47H312.418C313.288 110.47 313.941 109.746 313.941 108.948V97.7875C314.014 96.9903 313.288 96.2655 312.418 96.2655ZM274.256 79.6692H242.117C241.246 79.6692 240.593 80.3939 240.593 81.1911V92.352C240.593 93.2217 241.319 93.8739 242.117 93.8739H274.256C275.127 93.8739 275.78 93.1492 275.78 92.352V81.1911C275.78 80.3215 275.127 79.6692 274.256 79.6692ZM312.418 79.6692H280.278C279.407 79.6692 278.754 80.3939 278.754 81.1911V92.352C278.754 93.2217 279.48 93.8739 280.278 93.8739H312.418C313.288 93.8739 313.941 93.1492 313.941 92.352V81.1911C314.014 80.3215 313.288 79.6692 312.418 79.6692ZM274.256 96.2655H242.117C241.246 96.2655 240.593 96.9903 240.593 97.7875V108.948C240.593 109.818 241.319 110.47 242.117 110.47H274.256C275.127 110.47 275.78 109.746 275.78 108.948V97.7875C275.78 96.9903 275.127 96.2655 274.256 96.2655ZM417.833 79.6692H402.234C401.364 79.6692 400.711 80.3939 400.711 81.1911V108.948C400.711 109.818 401.436 110.47 402.234 110.47H417.833C418.703 110.47 419.356 109.746 419.356 108.948V81.1911C419.356 80.3215 418.703 79.6692 417.833 79.6692ZM395.632 79.6692H380.034C379.164 79.6692 378.511 80.3939 378.511 81.1911V108.948C378.511 109.818 379.236 110.47 380.034 110.47H395.632C396.503 110.47 397.156 109.746 397.156 108.948V81.1911C397.156 80.3215 396.503 79.6692 395.632 79.6692ZM373.214 79.6692H357.616C356.746 79.6692 356.093 80.3939 356.093 81.1911V108.948C356.093 109.818 356.818 110.47 357.616 110.47H373.214C374.085 110.47 374.738 109.746 374.738 108.948V81.1911C374.81 80.3215 374.085 79.6692 373.214 79.6692ZM350.796 79.6692H318.657C317.786 79.6692 317.133 80.3939 317.133 81.1911V92.352C317.133 93.2217 317.859 93.8739 318.657 93.8739H350.796C351.667 93.8739 352.32 93.1492 352.32 92.352V81.1911C352.32 80.3215 351.595 79.6692 350.796 79.6692ZM350.796 96.2655H318.657C317.786 96.2655 317.133 96.9903 317.133 97.7875V108.948C317.133 109.818 317.859 110.47 318.657 110.47H350.796C351.667 110.47 352.32 109.746 352.32 108.948V97.7875C352.32 96.9903 351.595 96.2655 350.796 96.2655Z" fill="url(#paint0_linear)"/>
<path d="M201.177 77.8279H195.318V83.6867H201.177V77.8279Z" stroke="#2C373D" stroke-width="3" stroke-miterlimit="10" stroke-linejoin="round"/>
<path d="M191.97 77.8279H186.112V83.6867H191.97V77.8279Z" stroke="#2C373D" stroke-width="3" stroke-miterlimit="10" stroke-linejoin="round"/>
<path d="M182.764 77.8279H176.905V83.6867H182.764V77.8279Z" stroke="#2C373D" stroke-width="3" stroke-miterlimit="10" stroke-linejoin="round"/>
<path d="M173.557 77.8279H167.698V83.6867H173.557V77.8279Z" stroke="#2C373D" stroke-width="3" stroke-miterlimit="10" stroke-linejoin="round"/>
<path d="M243.863 191.532L238.778 199.096H204.421L200.498 204.21H197.665C196.285 204.21 195.05 203.346 194.542 202.121C194.033 201.041 193.38 199.96 192.508 199.096C190.402 196.791 187.278 195.278 183.864 195.278C180.45 195.278 177.399 196.719 175.22 199.096C174.349 200.032 173.695 201.041 173.187 202.193C172.678 203.418 171.516 204.21 170.136 204.21H170.063C168.683 204.21 167.521 203.346 167.012 202.121C166.577 201.041 165.923 199.96 165.124 199.096C163.017 196.575 159.821 195.062 156.262 195.062C152.703 195.062 149.507 196.647 147.4 199.096C146.601 200.032 145.875 201.185 145.439 202.337C145.003 203.49 143.914 204.21 142.679 204.21H140.282L137.086 199.096H114.132V191.532H154.519V186.634H163.962V191.532H228.391V186.634H237.471V191.532H243.863V191.532Z" stroke="#2C373D" stroke-width="3" stroke-miterlimit="10" stroke-linejoin="round"/>
<path d="M270.646 188.308H260.602V189.982H270.646V188.308Z" fill="#2C373D"/>
<path d="M352.828 205.047C352.973 207.946 350.651 210.41 347.677 210.41H340.857V205.917C340.857 199.032 335.198 193.162 328.306 193.307C321.632 193.452 316.19 198.887 316.19 205.627V210.41H276.796V207.874C276.796 200.989 271.137 195.119 264.244 195.191C257.57 195.336 252.129 200.771 252.129 207.511V208.309C252.129 209.468 251.186 210.338 250.097 210.338H248.574V196.93C248.574 193.669 251.258 190.988 254.523 190.988H262.358H272.152H305.163L305.888 147.794C305.888 146.707 306.831 145.764 307.92 145.764L329.394 147.504C341.438 148.518 350.216 158.157 351.232 170.188L352.828 205.047ZM345.718 174.536C346.661 174.536 347.314 173.667 347.169 172.797L345.718 165.767C345.065 162.578 342.236 160.259 339.043 160.259H333.022V174.536H345.718Z" fill="white"/>
<path d="M347.169 172.797C347.386 173.667 346.661 174.536 345.718 174.536H333.021V160.259H339.043C342.308 160.259 345.065 162.578 345.718 165.767L347.169 172.797Z" fill="white"/>
<path d="M347.749 210.411C350.651 210.411 353.045 207.947 352.9 205.048L351.304 170.333C350.216 158.375 341.437 148.664 329.467 147.649L307.992 145.91C306.904 145.91 305.96 146.78 305.96 147.939L305.235 191.133H272.225H262.43H254.595C251.33 191.133 248.646 193.815 248.646 197.076V210.483H250.17C251.33 210.483 252.201 209.541 252.201 208.454V207.657C252.201 200.917 257.57 195.481 264.317 195.336C271.209 195.192 276.868 201.062 276.868 208.019V210.556H316.263V205.773C316.263 199.033 321.631 193.597 328.378 193.452C335.271 193.307 340.929 199.178 340.929 206.062V210.483H347.749V210.411Z" stroke="#2C373D" stroke-width="3" stroke-miterlimit="10" stroke-linejoin="round"/>
<path d="M333.021 174.536V160.259H339.043C342.308 160.259 345.065 162.578 345.718 165.767L347.169 172.797C347.386 173.667 346.661 174.536 345.718 174.536H333.021Z" stroke="#2C373D" stroke-width="3" stroke-miterlimit="10" stroke-linejoin="round"/>
<path d="M264.368 215.091C268.76 215.091 272.32 211.344 272.32 206.721C272.32 202.099 268.76 198.352 264.368 198.352C259.977 198.352 256.417 202.099 256.417 206.721C256.417 211.344 259.977 215.091 264.368 215.091Z" stroke="#2C373D" stroke-width="3" stroke-miterlimit="10" stroke-linejoin="round"/>
<path d="M264.368 210.462C266.448 210.462 268.135 208.776 268.135 206.696C268.135 204.615 266.448 202.929 264.368 202.929C262.288 202.929 260.602 204.615 260.602 206.696C260.602 208.776 262.288 210.462 264.368 210.462Z" stroke="#2C373D" stroke-width="3" stroke-miterlimit="10" stroke-linejoin="round"/>
<path d="M328.815 215.091C333.206 215.091 336.766 211.344 336.766 206.721C336.766 202.099 333.206 198.352 328.815 198.352C324.424 198.352 320.864 202.099 320.864 206.721C320.864 211.344 324.424 215.091 328.815 215.091Z" stroke="#2C373D" stroke-width="3" stroke-miterlimit="10" stroke-linejoin="round"/>
<path d="M328.815 210.462C330.895 210.462 332.581 208.776 332.581 206.696C332.581 204.615 330.895 202.929 328.815 202.929C326.735 202.929 325.049 204.615 325.049 206.696C325.049 208.776 326.735 210.462 328.815 210.462Z" stroke="#2C373D" stroke-width="3" stroke-miterlimit="10" stroke-linejoin="round"/>
<path d="M298.924 130.557H115.912C114.458 130.557 113.295 131.727 113.295 133.189V185.676C113.295 187.138 114.458 188.308 115.912 188.308H153.706H236.781H261.275H271.087H298.997C300.451 188.308 301.613 187.138 301.613 185.676V133.189C301.613 131.727 300.378 130.557 298.924 130.557ZM163.155 188.308H227.696H163.155Z" fill="url(#paint1_linear)"/>
<path d="M122.402 178.264H120.091C119.591 178.264 119.154 177.761 119.154 177.186V136.657C119.154 136.082 119.591 135.579 120.091 135.579H122.402C122.902 135.579 123.339 136.082 123.339 136.657V177.186C123.339 177.761 122.964 178.264 122.402 178.264Z" fill="white"/>
<path d="M133.095 178.264H130.322C129.722 178.264 129.198 177.761 129.198 177.186V136.657C129.198 136.082 129.722 135.579 130.322 135.579H133.095C133.695 135.579 134.22 136.082 134.22 136.657V177.186C134.22 177.761 133.695 178.264 133.095 178.264Z" fill="white"/>
<path d="M143.139 178.264H140.366C139.766 178.264 139.241 177.761 139.241 177.186V136.657C139.241 136.082 139.766 135.579 140.366 135.579H143.139C143.739 135.579 144.263 136.082 144.263 136.657V177.186C144.263 177.761 143.739 178.264 143.139 178.264Z" fill="white"/>
<path d="M154.02 178.264H151.246C150.647 178.264 150.122 177.761 150.122 177.186V136.657C150.122 136.082 150.647 135.579 151.246 135.579H154.02C154.619 135.579 155.144 136.082 155.144 136.657V177.186C155.144 177.761 154.694 178.264 154.02 178.264Z" fill="white"/>
<path d="M164.9 179.101H162.127C161.527 179.101 161.003 178.588 161.003 178.002V136.678C161.003 136.092 161.527 135.579 162.127 135.579H164.9C165.5 135.579 166.024 136.092 166.024 136.678V178.002C166.024 178.662 165.5 179.101 164.9 179.101Z" fill="white"/>
<path d="M175.781 178.264H173.007C172.408 178.264 171.883 177.761 171.883 177.186V136.657C171.883 136.082 172.408 135.579 173.007 135.579H175.781C176.38 135.579 176.905 136.082 176.905 136.657V177.186C176.905 177.761 176.38 178.264 175.781 178.264Z" fill="white"/>
<path d="M186.849 178.264H184.538C184.038 178.264 183.601 177.761 183.601 177.186V136.657C183.601 136.082 184.038 135.579 184.538 135.579H186.849C187.348 135.579 187.786 136.082 187.786 136.657V177.186C187.786 177.761 187.348 178.264 186.849 178.264Z" fill="white"/>
<path d="M197.729 178.264H195.418C194.919 178.264 194.481 177.761 194.481 177.186V136.657C194.481 136.082 194.919 135.579 195.418 135.579H197.729C198.229 135.579 198.666 136.082 198.666 136.657V177.186C198.666 177.761 198.229 178.264 197.729 178.264Z" fill="white"/>
<path d="M209.259 178.264H206.486C205.887 178.264 205.362 177.761 205.362 177.186V136.657C205.362 136.082 205.887 135.579 206.486 135.579H209.259C209.859 135.579 210.384 136.082 210.384 136.657V177.186C210.384 177.761 209.859 178.264 209.259 178.264Z" fill="white"/>
<path d="M219.303 179.101H216.53C215.93 179.101 215.406 178.588 215.406 178.002V136.678C215.406 136.092 215.93 135.579 216.53 135.579H219.303C219.903 135.579 220.427 136.092 220.427 136.678V178.002C220.427 178.662 219.903 179.101 219.303 179.101Z" fill="white"/>
<path d="M230.184 178.264H227.411C226.811 178.264 226.286 177.761 226.286 177.186V136.657C226.286 136.082 226.811 135.579 227.411 135.579H230.184C230.783 135.579 231.308 136.082 231.308 136.657V177.186C231.308 177.761 230.783 178.264 230.184 178.264Z" fill="white"/>
<path d="M240.227 179.101H237.454C236.855 179.101 236.33 178.588 236.33 178.002V136.678C236.33 136.092 236.855 135.579 237.454 135.579H240.227C240.827 135.579 241.352 136.092 241.352 136.678V178.002C241.352 178.662 240.902 179.101 240.227 179.101Z" fill="white"/>
<path d="M251.108 178.264H248.335C247.735 178.264 247.21 177.761 247.21 177.186V136.657C247.21 136.082 247.735 135.579 248.335 135.579H251.108C251.708 135.579 252.232 136.082 252.232 136.657V177.186C252.232 177.761 251.708 178.264 251.108 178.264Z" fill="white"/>
<path d="M261.989 179.101H259.215C258.616 179.101 258.091 178.588 258.091 178.002V136.678C258.091 136.092 258.616 135.579 259.215 135.579H261.989C262.588 135.579 263.113 136.092 263.113 136.678V178.002C263.113 178.662 262.663 179.101 261.989 179.101Z" fill="white"/>
<path d="M272.22 178.264H269.909C269.409 178.264 268.972 177.761 268.972 177.186V136.657C268.972 136.082 269.409 135.579 269.909 135.579H272.22C272.719 135.579 273.157 136.082 273.157 136.657V177.186C273.157 177.833 272.719 178.264 272.22 178.264Z" fill="white"/>
<path d="M282.913 178.264H280.14C279.54 178.264 279.015 177.761 279.015 177.186V136.657C279.015 136.082 279.54 135.579 280.14 135.579H282.913C283.512 135.579 284.037 136.082 284.037 136.657V177.186C284.037 177.761 283.512 178.264 282.913 178.264Z" fill="white"/>
<path d="M293.793 178.264H291.02C290.421 178.264 289.896 177.761 289.896 177.186V136.657C289.896 136.082 290.421 135.579 291.02 135.579H293.793C294.393 135.579 294.918 136.082 294.918 136.657V177.186C294.918 177.833 294.393 178.264 293.793 178.264Z" fill="white"/>
<path d="M184.019 215.091C188.411 215.091 191.971 211.344 191.971 206.721C191.971 202.099 188.411 198.352 184.019 198.352C179.628 198.352 176.068 202.099 176.068 206.721C176.068 211.344 179.628 215.091 184.019 215.091Z" stroke="#2C373D" stroke-width="3" stroke-miterlimit="10" stroke-linejoin="round"/>
<path d="M184.019 210.462C186.099 210.462 187.786 208.776 187.786 206.696C187.786 204.615 186.099 202.929 184.019 202.929C181.939 202.929 180.253 204.615 180.253 206.696C180.253 208.776 181.939 210.462 184.019 210.462Z" stroke="#2C373D" stroke-width="3" stroke-miterlimit="10" stroke-linejoin="round"/>
<path d="M156.399 215.091C160.791 215.091 164.351 211.344 164.351 206.721C164.351 202.099 160.791 198.352 156.399 198.352C152.008 198.352 148.448 202.099 148.448 206.721C148.448 211.344 152.008 215.091 156.399 215.091Z" stroke="#2C373D" stroke-width="3" stroke-miterlimit="10" stroke-linejoin="round"/>
<path d="M156.399 210.462C158.479 210.462 160.166 208.776 160.166 206.696C160.166 204.615 158.479 202.929 156.399 202.929C154.319 202.929 152.633 204.615 152.633 206.696C152.633 208.776 154.319 210.462 156.399 210.462Z" stroke="#2C373D" stroke-width="3" stroke-miterlimit="10" stroke-linejoin="round"/>
<path d="M407.404 47.7298H369.501C369.501 49.0418 368.414 50.208 367.109 50.208H337.903C336.599 50.208 335.512 49.1147 335.512 47.8027V47.7298C335.512 47.7298 320.873 48.24 311.669 45.9076C306.451 44.5227 304.639 43.8667 299.276 41.7529C279.419 33.808 267.171 30.8924 267.171 30.8924C267.171 30.8924 275.288 29.6533 272.752 23.6764C271.447 20.4692 263.113 1.66382 263.113 1.66382L270.867 2.24692C273.911 2.46559 276.665 3.92338 278.984 5.96428C302.972 26.9564 300.726 27.9039 313.77 27.9039C330.366 27.9039 368.414 28.0497 386.822 28.0497C394.794 28.0497 409.795 27.3208 414.723 34.6097L418.709 36.1404C422.26 37.4524 424.869 47.0009 407.404 47.7298Z" fill="white" stroke="#2C373D" stroke-width="2" stroke-miterlimit="10" stroke-linejoin="round"/>
<path d="M415.441 35.1426H407.032C406.597 35.1426 406.234 34.5846 406.234 33.9336V32.3526C406.234 32.0737 406.379 31.7947 406.597 31.7947H412.106" stroke="#2C373D" stroke-width="2" stroke-miterlimit="10" stroke-linejoin="round"/>
<path d="M351.16 42.2009L346.735 41.4037V37.5626L351.16 36.8379" fill="white"/>
<path d="M351.16 42.2009L346.735 41.4037V37.5626L351.16 36.8379" stroke="#2C373D" stroke-width="2" stroke-miterlimit="10" stroke-linejoin="round"/>
<path d="M362.768 44.0851H354.57C352.103 44.0851 350.145 42.1283 350.145 39.6643C350.145 37.2002 352.103 35.2434 354.57 35.2434H362.768C364.364 35.2434 365.598 36.5479 365.598 38.0698V41.2587C365.67 42.7806 364.364 44.0851 362.768 44.0851Z" fill="white" stroke="#2C373D" stroke-width="2" stroke-miterlimit="10" stroke-linejoin="round"/>
<path d="M360.883 35.1709H355.732V44.0126H360.883V35.1709Z" stroke="#2C373D" stroke-width="2" stroke-miterlimit="10" stroke-linejoin="round"/>
<path d="M320.864 39.7203L350.158 28.0027" stroke="#2C373D" stroke-width="2" stroke-miterlimit="10" stroke-linejoin="round"/>
<path d="M296.472 36.8987C297.048 36.7477 297.625 36.8232 298.13 36.9742C301.59 38.4088 313.99 44.5246 327.4 44.4491C328.986 44.4491 330.139 46.1101 330.067 47.6957C330.067 47.6957 318.965 47.8467 308.655 44.9021C301.59 42.939 295.967 40.2964 292.723 38.8618C292.29 38.6353 292.29 37.9558 292.795 37.8048L296.472 36.8987Z" fill="white" stroke="#2C373D" stroke-width="2" stroke-miterlimit="10"/>
<path d="M335.929 46.0231L336.807 45.3383C337.685 44.6535 338.563 44.3491 339.661 44.3491H362.712" stroke="#2C373D" stroke-width="2" stroke-miterlimit="10" stroke-linecap="round" stroke-linejoin="round"/>
<path d="M330.07 35.9794H336.029C336.319 35.9794 336.61 35.9016 336.901 35.8237L352.668 29.2837H346.129" stroke="#2C373D" stroke-width="2" stroke-miterlimit="10" stroke-linejoin="round"/>
<path d="M340.073 41.0014C354.409 36.9392 368.454 34.0588 384.02 31.843C387.278 31.3999 386.482 27.2639 383.731 27.6332H383.803C366.644 30.3659 352.237 34.2065 339.277 38.7856" fill="white"/>
<path d="M340.073 41.0014C354.409 36.9392 368.454 34.0588 384.02 31.843C387.278 31.3999 386.482 27.2639 383.731 27.6332H383.803C366.644 30.3659 352.237 34.2065 339.277 38.7856" stroke="#2C373D" stroke-width="2" stroke-miterlimit="10" stroke-linejoin="round"/>
<path d="M266.461 30.6484L272.713 29.9359L295.032 29.2946C301.139 29.0809 301.866 32.0735 295.396 32.2873C292.779 32.3585 282.673 32.786 273.876 32.5723C269.005 32.4298 267.406 31.931 267.406 31.931L266.461 30.6484Z" stroke="#2C373D" stroke-width="2" stroke-miterlimit="10" stroke-linejoin="round"/>
<path d="M313.331 39.8955C318.678 38.9236 334.646 37.8822 339.334 38.9236C341.532 39.4095 341.825 41.4922 338.089 41.7699C334.28 42.0476 321.608 41.4922 313.331 39.8955Z" fill="white" stroke="#2C373D" stroke-width="2" stroke-miterlimit="10" stroke-linejoin="round"/>
<path fill-rule="evenodd" clip-rule="evenodd" d="M259.765 31.7513C262.675 30.4388 272.654 29.7097 275.495 30.3659C276.812 30.6576 277.089 32.1888 274.802 32.4804C272.585 32.7721 264.893 32.6992 259.765 31.7513Z" fill="white" stroke="#2C373D" stroke-width="2" stroke-miterlimit="10" stroke-linejoin="round"/>
<path d="M392.75 36.8164H394.61C395.044 36.8164 395.354 37.2103 395.354 37.7617V42.5669C395.354 43.1183 395.044 43.5122 394.61 43.5122H392.75C392.316 43.5122 392.006 43.1183 392.006 42.5669V37.7617C392.006 37.2103 392.316 36.8164 392.75 36.8164Z" stroke="#2C373D" stroke-width="2" stroke-miterlimit="10" stroke-linejoin="round"/>
<path d="M263.95 5.01172L272.874 25.099H281.435C282.16 25.099 282.595 24.2955 282.233 23.7111L272.003 6.6187C271.495 5.81521 270.697 5.30389 269.754 5.30389L263.95 5.01172Z" stroke="#2C373D" stroke-width="2" stroke-miterlimit="10" stroke-linejoin="round"/>
<path d="M279.852 19.2402H278.178" stroke="#2C373D" stroke-width="2" stroke-miterlimit="10" stroke-linecap="round" stroke-linejoin="round"/>
<path d="M274.83 10.8704H273.156" stroke="#2C373D" stroke-width="2" stroke-miterlimit="10" stroke-linecap="round" stroke-linejoin="round"/>
<path d="M499.975 216.765H143.426" stroke="#2C373D" stroke-width="3" stroke-miterlimit="10" stroke-linecap="round" stroke-linejoin="round"/>
<path d="M135.894 216.765H96.556" stroke="#2C373D" stroke-width="3" stroke-miterlimit="10" stroke-linecap="round" stroke-linejoin="round"/>
<path d="M89.8603 216.765H71.447" stroke="#2C373D" stroke-width="3" stroke-miterlimit="10" stroke-linecap="round" stroke-linejoin="round"/>
<path d="M141.752 102.1H192.807" stroke="#2C373D" stroke-width="3" stroke-miterlimit="10" stroke-linecap="round" stroke-linejoin="round"/>
<path d="M489.931 177.427L486.103 175.148C482.131 172.797 477.22 172.726 473.175 175.005L472.381 175.433C468.264 177.712 463.28 177.641 459.235 175.148C455.335 172.797 450.496 172.583 446.452 174.72L444.574 175.718C440.529 177.855 435.69 177.641 431.79 175.29L431.645 175.219C427.745 172.797 422.834 172.654 418.789 174.863" stroke="#008DD2" stroke-width="3" stroke-miterlimit="10" stroke-linecap="round" stroke-linejoin="round"/>
<path d="M405.398 174.482C401.475 171.92 396.625 171.842 392.631 174.327L391.846 174.792C387.78 177.277 382.859 177.199 378.865 174.482C375.013 171.92 370.235 171.687 366.241 174.016L364.386 175.103" stroke="#008DD2" stroke-width="3" stroke-miterlimit="10" stroke-linecap="round" stroke-linejoin="round"/>
<path d="M465.659 156.368C467.674 156.29 469.688 155.669 471.487 154.582L472.278 154.116C476.378 151.632 481.342 151.71 485.371 154.427C489.256 156.989 494.076 157.222 498.105 154.893L499.975 153.806" stroke="#008DD2" stroke-width="3" stroke-miterlimit="10" stroke-linecap="round" stroke-linejoin="round"/>
<path d="M176.068 44.3491V71.9691" stroke="#2C373D" stroke-width="3" stroke-miterlimit="10" stroke-linecap="round" stroke-linejoin="round"/>
<path d="M100.741 145.129C96.7291 142.64 91.7691 142.564 87.6844 144.978L86.882 145.43C82.7244 147.844 77.6914 147.768 73.6067 145.129C69.6679 142.64 64.7809 142.414 60.6962 144.676L58.7997 145.732C54.715 147.994 49.8279 147.768 45.8891 145.279L45.7432 145.204C42.4609 143.092 38.4491 142.64 34.875 143.847C32.8326 144.525 30.7173 144.752 28.602 144.752H1.97852" stroke="#008DD2" stroke-width="3" stroke-miterlimit="10" stroke-linecap="round" stroke-linejoin="round"/>
<path d="M81.4906 160.935L80.6921 161.401C76.5545 163.885 71.5459 163.807 67.481 161.09C63.5612 158.528 58.6977 158.295 54.6328 160.624C53.3988 161.323 52.0196 161.711 50.6404 161.711H26.2506" stroke="#008DD2" stroke-width="3" stroke-miterlimit="10" stroke-linecap="round" stroke-linejoin="round"/>
<path d="M552.704 154.467L517.472 154.322C515.085 154.322 512.698 153.815 510.383 153.018C507.055 151.859 503.365 152.149 500.182 153.815L498.301 154.829" stroke="#008DD2" stroke-width="3" stroke-miterlimit="10" stroke-linecap="round" stroke-linejoin="round"/>
<defs>
<linearGradient id="paint0_linear" x1="240.589" y1="95.0975" x2="419.385" y2="95.0975" gradientUnits="userSpaceOnUse">
<stop stop-color="#008DD2"/>
<stop offset="1" stop-color="#003C5F"/>
</linearGradient>
<linearGradient id="paint1_linear" x1="113.255" y1="159.428" x2="301.588" y2="159.428" gradientUnits="userSpaceOnUse">
<stop stop-color="#1B75BC"/>
<stop offset="1" stop-color="#003C5F"/>
</linearGradient>
</defs>
</svg>
