<svg width="13" height="12" viewBox="0 0 13 12" fill="none" xmlns="http://www.w3.org/2000/svg">
<path fill-rule="evenodd" clip-rule="evenodd" d="M7.05018 0.487901C7.64054 0.198937 8.15552 0.103759 8.95445 0.103769C10.999 0.112236 12.5122 1.83654 12.5122 4.033C12.5122 5.70952 11.5775 7.32899 9.8363 8.89498C8.92237 9.71697 7.75548 10.5304 6.9198 10.9632L6.44166 11.2108L5.96352 10.9632C5.12784 10.5304 3.96095 9.71697 3.04702 8.89498C1.30587 7.32899 0.371094 5.70952 0.371094 4.033C0.371094 1.81305 1.87021 0.10376 3.93316 0.10376C4.70342 0.10376 5.24483 0.207939 5.84664 0.505595C6.05617 0.609227 6.25303 0.732152 6.43613 0.874038C6.62656 0.723726 6.83161 0.594885 7.05018 0.487901Z" fill="#DADADA"/>
</svg>
