<?xml version="1.0" encoding="utf-8"?><svg viewBox="0 0 813 108" xmlns="http://www.w3.org/2000/svg" xmlns:xlink="http://www.w3.org/1999/xlink"><style>:root>svg{display:none}:root>svg:target{display:block}</style><svg viewBox="0 0 339 104" id="cloud-airplane" xmlns="http://www.w3.org/2000/svg"><path d="M30.812 96.895H109.4c0 2.703 2.254 5.105 4.959 5.105h60.556c2.704 0 4.958-2.252 4.958-4.955v-.15s30.354 1.051 49.437-3.754c10.819-2.853 14.576-4.204 25.695-8.558 41.172-16.367 66.567-22.373 66.567-22.373s-16.83-2.552-11.571-14.865C312.706 40.74 329.986 2 329.986 2l-16.078 1.201c-6.311.45-12.021 3.454-16.829 7.658C247.342 54.102 252 56.054 224.952 56.054c-34.41 0-113.298.3-151.465.3-16.529 0-47.633-1.501-57.851 13.514L7.37 73.02C.008 75.724-5.4 95.393 30.812 96.895z"/><path d="M13.232 70.768h17.43c.902 0 1.653-.9 1.653-1.952v-2.552c0-.45-.3-.901-.751-.901h-11.42M146.966 86.084l9.166-1.651v-7.958l-9.166-1.502"/><path d="M122.924 89.988h16.98c5.109 0 9.166-4.054 9.166-9.159s-4.057-9.16-9.166-9.16h-16.98c-3.306 0-5.86 2.704-5.86 5.857v6.606c-.151 3.153 2.554 5.856 5.86 5.856z"/><path d="M126.831 71.52H137.5v18.318h-10.669V71.52zM209.325 80.378l-62.509-24.174M260.866 75.424c-1.202-.3-2.404-.15-3.456.15-7.213 2.853-33.058 15.015-61.007 14.864-3.306 0-5.71 3.304-5.56 6.457 0 0 23.141.3 44.628-5.556 14.726-3.903 26.447-9.159 33.208-12.012.902-.45.902-1.802-.15-2.102l-7.663-1.801zM178.221 93.141l-1.803-1.351c-1.804-1.352-3.607-1.952-5.861-1.952h-47.333M189.941 73.021H177.62c-.601 0-1.202-.15-1.804-.3l-32.607-12.613h13.524"/><path d="M169.956 83.532c-29.752-8.259-58.903-14.114-91.21-18.619-6.762-.9-5.109-9.31.601-8.558h-.15c35.612 5.555 65.515 13.363 92.412 22.672M322.323 62.21l-12.922-1.501-46.131-1.352c-12.622-.45-14.125 5.856-.751 6.307 5.409.15 26.296 1.05 44.477.6 10.068-.3 13.374-1.351 13.374-1.351l1.953-2.703z"/><path d="M225.404 80.828c-10.969-2.102-43.727-4.354-53.344-2.102-4.508 1.051-5.109 5.556 2.555 6.156 7.814.601 33.809-.6 50.789-4.054z"/><path fill-rule="evenodd" clip-rule="evenodd" d="M337.049 64.312c-6.311-2.703-27.949-4.204-34.11-2.853-2.855.6-3.456 3.754 1.503 4.355 4.808.6 21.487.45 32.607-1.502z"/><path d="M61.016 75.574h-4.508c-1.052 0-1.803.75-1.803 1.802v9.159c0 1.05.75 1.802 1.803 1.802h4.508c1.052 0 1.803-.751 1.803-1.802v-9.16c0-1.05-.752-1.801-1.803-1.801zM326.981 8.757l-18.482 41.291h-17.731c-1.503 0-2.404-1.651-1.653-2.853l21.187-35.135c1.052-1.652 2.705-2.703 4.658-2.703l12.021-.6zM294.975 38.636h2.855M305.193 21.07h2.855"/></svg><svg viewBox="0 0 114 26" id="cloud-center" xmlns="http://www.w3.org/2000/svg"><path d="M29.456 23.144v-.31a7.398 7.398 0 017.432-7.426c.31 0 .516 0 .826.103M67.853 14.067h.207c5.058 0 9.083 4.023 9.083 9.077M29.456 23.144H2M111.309 23.144H77.247"/><path d="M37.61 15.511C38.54 7.88 45.042 2 52.887 2c7.328 0 13.522 5.157 15.07 12.068"/></svg><svg viewBox="0 0 216 45" id="cloud-center-big" xmlns="http://www.w3.org/2000/svg"><path d="M55.24 43v-.6c0-8 6.405-14.4 14.411-14.4.6 0 1.001 0 1.602.2M129.697 25.4h.4c9.808 0 17.614 7.8 17.614 17.6M55.24 43H2M213.961 43h-66.05"/><path d="M71.052 28.2C72.853 13.4 85.462 2 100.674 2c14.211 0 26.22 10 29.223 23.4"/></svg><svg viewBox="0 0 813 108" id="cloud-down" xmlns="http://www.w3.org/2000/svg"><path d="M296.168 25.767c-.122-.486-.122-.973-.122-1.46 0-6.323 5.113-11.553 11.566-11.553.609 0 1.218 0 1.705.122 1.704-5.838 7.061-10.095 13.392-10.095 6.94 0 12.662 5.108 13.757 11.676 3.409 1.216 5.966 4.5 5.966 8.391 0 .852-.122 1.703-.365 2.554M126.207 103.847v-.486c0-5.717 3.896-10.581 9.131-12.04.852-14.838 13.149-26.635 28.246-26.635 10.227 0 19.236 5.472 24.228 13.62 1.095-.242 2.313-.242 3.53-.242 11.445 0 20.698 9.243 20.698 20.675 0 1.824-.244 3.527-.609 5.108M126.207 104.333H2.023M210.944 105.55h144.15M250.269 25.889h45.777M342.067 25.646h22.402M49.14 91.807h83.398M713.765 61.523v-.364a8.725 8.725 0 018.766-8.757c.365 0 .609 0 .974.122M759.055 50.82h.244c5.965 0 10.714 4.744 10.714 10.703M713.765 61.523H681.38M810.311 61.523h-40.177"/><path d="M723.383 52.524c1.096-9 8.766-15.932 18.019-15.932 8.644 0 15.949 6.08 17.775 14.229"/></svg><svg viewBox="0 0 304 39" id="cloud-left" xmlns="http://www.w3.org/2000/svg"><path d="M107.283 35.212v-.413c0-4.848 3.303-8.973 7.742-10.211C115.747 12.005 126.172 2 138.971 2c8.671 0 16.309 4.641 20.541 11.552.929-.206 1.961-.207 2.993-.207 9.703 0 17.548 7.84 17.548 17.535a19.14 19.14 0 01-.517 4.332M107.283 35.624H2M179.124 36.656h122.211M41.945 25h70.705"/></svg><svg viewBox="0 0 101 24" id="cloud-wing" xmlns="http://www.w3.org/2000/svg"><path d="M40.913 21.494c-.103-.413-.103-.825-.103-1.238 0-5.363 4.335-9.798 9.806-9.798.516 0 1.032 0 1.445.103C53.506 5.61 58.048 2 63.415 2c5.884 0 10.735 4.332 11.664 9.902 2.89 1.031 5.058 3.816 5.058 7.116 0 .722-.104 1.444-.31 2.166M2 21.597h38.81M79.827 21.39h18.992"/></svg><svg viewBox="0 0 14 14" id="icon-phone" xmlns="http://www.w3.org/2000/svg"><path fill-rule="evenodd" clip-rule="evenodd" d="M6.238 4.559c.345-.466.469-.956.078-1.39C5.44 1.944 4.85 1.186 4.48.82c-.703-.694-1.86-.6-2.468 0-.327.322-.438.433-.774.774-1.87 1.871-.73 5.827 2.303 8.863 3.032 3.034 6.987 4.176 8.862 2.3.31-.299.572-.561.779-.78.597-.63.687-1.736-.004-2.454-.354-.368-1.078-.93-2.356-1.844-.391-.35-.856-.274-1.281.005-.205.135-.354.27-.635.552l-.511.511c-.067.067-.981-.39-1.868-1.278C5.64 6.58 5.183 5.666 5.25 5.6l.51-.511c.09-.09.133-.133.187-.19.114-.12.209-.229.29-.34zm3.1 5.13l.51-.511c.155-.155.255-.25.337-.316 1.12.804 1.768 1.31 2.033 1.585.16.165.134.466-.004.613-.191.202-.44.45-.745.745-1.212 1.212-4.405.291-6.986-2.292C1.903 6.929.981 3.735 2.184 2.532c.335-.34.44-.446.763-.763.12-.12.45-.146.597-.001.285.281.813.958 1.59 2.04-.04.05-.09.106-.152.17a8.838 8.838 0 01-.164.167l-.51.511c-.87.869-.13 2.347 1.277 3.755 1.405 1.406 2.884 2.147 3.752 1.278z"/></svg><svg viewBox="0 0 30 30" id="instagram" xmlns="http://www.w3.org/2000/svg"><path d="M9.967 15.082a4.85 4.85 0 119.7-.001 4.85 4.85 0 01-9.7 0zm-2.622 0a7.472 7.472 0 1014.945 0 7.472 7.472 0 00-14.945 0zm13.494-7.768a1.745 1.745 0 101.747-1.746h-.001a1.747 1.747 0 00-1.746 1.746zm-11.9 19.612c-1.42-.065-2.19-.301-2.703-.5a4.523 4.523 0 01-1.674-1.089 4.489 4.489 0 01-1.088-1.673c-.2-.512-.436-1.283-.501-2.702-.07-1.534-.085-1.994-.085-5.88s.016-4.345.085-5.88c.065-1.42.303-2.189.5-2.703.265-.679.58-1.164 1.09-1.673.508-.51.992-.825 1.673-1.089.512-.2 1.283-.436 2.702-.5 1.534-.07 1.995-.085 5.879-.085 3.884 0 4.345.015 5.88.085 1.42.064 2.19.302 2.703.5.68.264 1.164.58 1.674 1.089s.824.994 1.088 1.673c.2.513.436 1.284.5 2.703.071 1.535.085 1.994.085 5.88s-.014 4.345-.084 5.88c-.065 1.419-.302 2.19-.5 2.702a4.51 4.51 0 01-1.09 1.673 4.523 4.523 0 01-1.673 1.088c-.512.2-1.284.436-2.702.501-1.534.07-1.995.085-5.881.085s-4.345-.014-5.879-.085zM8.817.619c-1.55.07-2.608.316-3.532.676a7.137 7.137 0 00-2.578 1.678 7.11 7.11 0 00-1.679 2.578C.67 6.476.424 7.534.354 9.083.282 10.634.265 11.13.265 15.082c0 3.951.017 4.447.089 5.999.07 1.549.316 2.607.675 3.532.372.957.87 1.77 1.679 2.577a7.154 7.154 0 002.578 1.679c.926.36 1.983.605 3.532.676 1.552.07 2.047.088 5.999.088 3.952 0 4.448-.017 6-.088 1.549-.07 2.606-.317 3.531-.676a7.156 7.156 0 002.578-1.679 7.128 7.128 0 001.679-2.577c.36-.925.606-1.983.675-3.532.071-1.553.087-2.048.087-6 0-3.95-.016-4.447-.087-5.998-.07-1.55-.316-2.608-.675-3.532a7.157 7.157 0 00-1.679-2.578 7.12 7.12 0 00-2.576-1.678c-.927-.36-1.985-.607-3.533-.676C19.267.549 18.77.53 14.819.53c-3.952 0-4.448.016-6 .088z"/></svg><svg viewBox="0 0 12 16" id="location-point" xmlns="http://www.w3.org/2000/svg"><path fill-rule="evenodd" clip-rule="evenodd" d="M6 15.552l.438-.383C10.126 11.949 12 9.138 12 6.667c0-3.5-2.731-6-6-6s-6 2.5-6 6c0 2.47 1.874 5.282 5.562 8.502l.438.383zm0-1.777c-3.129-2.82-4.667-5.209-4.667-7.109C1.333 3.932 3.443 2 6 2s4.667 1.93 4.667 4.667c0 1.899-1.538 4.289-4.667 7.108zM6 3.333A3.333 3.333 0 116 10a3.333 3.333 0 010-6.667zM4 6.666a2 2 0 114 0 2 2 0 01-4 0z"/></svg><svg viewBox="0 0 20 14" id="menu-close" xmlns="http://www.w3.org/2000/svg"><path fill-rule="evenodd" clip-rule="evenodd" d="M20 2V0H0v2h20zm0 4v2H0V6h20zm0 6v2H0v-2h20z"/></svg><svg viewBox="0 0 16 16" id="menu-open" xmlns="http://www.w3.org/2000/svg"><path fill-rule="evenodd" clip-rule="evenodd" d="M14.556 0l1.414 1.414L1.828 15.556.414 14.142 14.556 0z"/><path fill-rule="evenodd" clip-rule="evenodd" d="M15.556 14.142l-1.414 1.414L0 1.414 1.414 0l14.142 14.142z"/></svg><svg viewBox="0 0 15 15" id="time-work" xmlns="http://www.w3.org/2000/svg"><path fill-rule="evenodd" clip-rule="evenodd" d="M7.5 14.375a6.875 6.875 0 110-13.75 6.875 6.875 0 010 13.75zm0-1.25a5.625 5.625 0 100-11.25 5.625 5.625 0 000 11.25zm3.125-6.25h-2.5V3.75h-1.25v4.375h3.75v-1.25z"/></svg><svg viewBox="0 0 31 33" id="viber" xmlns="http://www.w3.org/2000/svg"><path d="M27.5 3.209C26.69 2.454 23.407.056 16.095.024c0 0-8.622-.524-12.825 3.357C.929 5.736.106 9.182.019 13.455c-.087 4.273-.199 12.28 7.47 14.451h.008l-.005 3.314s-.05 1.34.828 1.614c1.062.332 1.685-.687 2.698-1.786a86.626 86.626 0 001.903-2.167c5.245.444 9.28-.571 9.737-.721 1.06-.346 7.052-1.119 8.027-9.125 1.006-8.253-.487-13.473-3.184-15.826zm.89 15.234c-.823 6.685-5.684 7.105-6.58 7.394-.38.124-3.924 1.011-8.38.718 0 0-3.319 4.031-4.356 5.08-.162.163-.352.23-.48.197-.178-.044-.227-.257-.225-.568l.029-5.506s-.004 0 0 0c-6.488-1.812-6.11-8.627-6.036-12.196.073-3.57.74-6.493 2.718-8.459 3.556-3.24 10.88-2.757 10.88-2.757 6.184.028 9.148 1.902 9.835 2.53 2.282 1.966 3.445 6.671 2.595 13.565v.002z"/><path fill-rule="evenodd" clip-rule="evenodd" d="M16.45 10.563c.01-.257.198-.453.416-.44.819.05 1.5.34 1.984.927.483.584.72 1.4.762 2.381.01.256-.158.474-.377.487-.218.013-.405-.185-.415-.44-.036-.84-.233-1.412-.54-1.783-.305-.37-.77-.603-1.455-.645-.219-.013-.387-.232-.375-.488z"/><path fill-rule="evenodd" clip-rule="evenodd" d="M15.817 8.609c.016-.228.203-.4.417-.383 1.634.127 2.95.722 3.909 1.836.948 1.103 1.398 2.475 1.366 4.084-.005.228-.183.41-.398.405-.215-.005-.386-.194-.38-.423.028-1.42-.364-2.578-1.163-3.507-.796-.925-1.909-1.453-3.39-1.569-.215-.016-.376-.215-.36-.443z"/><path fill-rule="evenodd" clip-rule="evenodd" d="M15.184 6.113a.415.415 0 01.412-.42c2.375.018 4.383.832 5.995 2.451 1.626 1.633 2.43 3.855 2.45 6.615a.416.416 0 01-.406.425.415.415 0 01-.413-.419c-.019-2.586-.766-4.574-2.202-6.017-1.45-1.456-3.25-2.195-5.43-2.21a.416.416 0 01-.406-.425z"/><path d="M16.853 18.902s.581.05.894-.336l.61-.768c.295-.38 1.006-.624 1.701-.236.522.297 1.028.62 1.517.968.462.34 1.407 1.129 1.41 1.129.45.38.555.939.248 1.527l-.003.013a6.37 6.37 0 01-1.27 1.564c-.006.003-.006.006-.011.009-.438.365-.868.573-1.29.623a.855.855 0 01-.189.012 1.717 1.717 0 01-.548-.084l-.014-.02c-.65-.184-1.737-.643-3.546-1.641a21.13 21.13 0 01-2.98-1.968c-.468-.37-.916-.767-1.34-1.188l-.045-.046-.045-.045-.045-.045-.045-.045c-.422-.424-.818-.871-1.189-1.34a21.148 21.148 0 01-1.968-2.979c-.998-1.81-1.457-2.895-1.64-3.546l-.02-.014a1.718 1.718 0 01-.085-.548.828.828 0 01.012-.189c.052-.421.26-.852.624-1.29.003-.006.006-.006.01-.012.45-.504.978-.932 1.564-1.27l.012-.003c.589-.306 1.147-.202 1.527.246.003.003.79.948 1.128 1.41.348.49.672.996.969 1.518.388.695.145 1.407-.236 1.7l-.768.61c-.388.314-.337.895-.337.895s1.138 4.305 5.388 5.39z"/></svg><svg viewBox="0 0 30 30" id="whatsapp" xmlns="http://www.w3.org/2000/svg"><path d="M25.091 4.405A14.378 14.378 0 0014.856.163C6.88.163.39 6.651.386 14.627a14.436 14.436 0 001.932 7.231L.265 29.353l7.67-2.01a14.464 14.464 0 006.915 1.76h.006c7.974 0 14.466-6.49 14.469-14.465a14.375 14.375 0 00-4.234-10.233zM14.856 26.66h-.005a12.01 12.01 0 01-6.121-1.676l-.44-.26-4.55 1.193 1.214-4.436-.286-.455a11.992 11.992 0 01-1.839-6.398C2.832 7.999 8.227 2.606 14.861 2.606a11.947 11.947 0 018.502 3.526 11.948 11.948 0 013.519 8.505c-.003 6.63-5.398 12.023-12.026 12.023zm6.597-9.004c-.362-.181-2.14-1.056-2.47-1.176-.332-.12-.573-.181-.814.18-.241.363-.934 1.177-1.145 1.418-.211.241-.422.271-.783.09-.362-.18-1.527-.562-2.908-1.794-1.075-.958-1.8-2.141-2.011-2.503-.21-.362-.022-.558.159-.738.162-.162.361-.422.542-.633.18-.211.24-.362.361-.603.12-.241.06-.452-.03-.633s-.813-1.96-1.114-2.684c-.294-.705-.592-.61-.814-.62-.21-.01-.452-.013-.693-.013-.24 0-.633.09-.964.452-.331.362-1.265 1.237-1.265 3.015 0 1.78 1.295 3.498 1.476 3.74.18.24 2.55 3.891 6.176 5.456a20.77 20.77 0 002.061.762c.866.275 1.654.236 2.277.143.695-.104 2.14-.874 2.44-1.718.302-.845.302-1.568.211-1.72-.09-.15-.331-.24-.692-.421z"/></svg></svg>