<?xml version="1.0" encoding="utf-8"?><svg viewBox="0 0 215 24" xmlns="http://www.w3.org/2000/svg" xmlns:xlink="http://www.w3.org/1999/xlink"><style>:root>svg{display:none}:root>svg:target{display:block}</style><svg fill="none" viewBox="0 0 162 18" id="logo-black" xmlns="http://www.w3.org/2000/svg"><path fill-rule="evenodd" clip-rule="evenodd" d="M12.39 5.187v12.231H6.195V5.187h6.195zM0 .6h6.195v4.587H0V.6z" fill="#D5ECF9"/><path fill-rule="evenodd" clip-rule="evenodd" d="M153.001 18c-2.615 0-5.576-.506-7.822-1.865l2.064-4.537c.497.28.972.525 1.507.74 1.573.635 3.599 1.061 5.305.836.365-.048 1.004-.16 1.004-.627 0-.557-.976-.736-1.4-.846-1.586-.409-3.101-.625-4.685-1.18-2.168-.76-3.461-2.368-3.461-4.636 0-1.093.318-2.103.954-3.005C148.051.635 151.164 0 153.79 0c1.199 0 2.38.126 3.542.378a11.57 11.57 0 013.268 1.214l-1.928 4.511c-1.571-.77-3.144-1.331-4.931-1.331-.713 0-1.24.08-1.581.24-.614.288-.573.878.087 1.127 1.643.621 3.709.74 5.52 1.363 2.183.753 3.512 2.322 3.512 4.613 0 1.09-.316 2.096-.955 2.994-1.592 2.236-4.694 2.891-7.323 2.891zM18.479.604h18.858v4.58H31.05v12.212h-6.286V5.184H18.48V.604zM114.863 18c-2.615 0-5.575-.506-7.821-1.865l2.063-4.537c.497.28.973.525 1.507.74 1.573.635 3.599 1.061 5.306.836.364-.048 1.004-.16 1.004-.627 0-.557-.976-.736-1.4-.846-1.586-.409-3.101-.625-4.685-1.18-2.168-.76-3.461-2.368-3.461-4.636 0-1.093.317-2.103.953-3.005C109.913.635 113.027 0 115.653 0c1.199 0 2.379.126 3.542.378a11.58 11.58 0 013.268 1.214l-1.929 4.511c-1.571-.77-3.144-1.331-4.93-1.331-.713 0-1.24.08-1.582.24-.613.288-.572.878.088 1.127 1.643.621 3.708.74 5.52 1.363 2.182.753 3.512 2.322 3.512 4.613 0 1.09-.317 2.096-.955 2.994-1.592 2.236-4.694 2.89-7.323 2.89l-.001.001zM138.295.604l-3.717 6.41-3.716-6.41h-6.914l7.488 12.213v4.58h6.285v-4.58L145.209.604h-6.914zm-68.883 9.923h3.482l-1.741-6.201-1.741 6.2zm4.767 4.58h-6.053l-.642 2.289h-6.286L65.912.604h10.482l4.714 16.792h-6.286l-.643-2.29zM97.082.603h6.286v16.792h-8.254l-4.475-7.543v7.543h-6.286V.604h7.084l5.645 9.514V.604zM55.519 12.169l2.379 5.227h-6.286l-2.084-4.58h-3.101v4.58H40.14V.604h12.571c3.457 0 6.286 2.748 6.286 6.106 0 2.38-1.42 4.453-3.48 5.46zM51.14 5.183h-4.714v3.054h4.714c.427 0 .819-.173 1.106-.452a1.5 1.5 0 00.465-1.075 1.5 1.5 0 00-.465-1.075 1.587 1.587 0 00-1.106-.452z" fill="#3C464E"/><path fill-rule="evenodd" clip-rule="evenodd" d="M18.585 5.187v12.231H12.39V5.187h6.195zM6.195.6h6.195v4.587H6.195V.6z" fill="#ACDBF1"/><path fill-rule="evenodd" clip-rule="evenodd" d="M24.78 5.187v12.231h-6.194V5.187h6.195zM12.39.6h6.196v4.587H12.39V.6z" fill="#008DD2"/></svg><svg fill="none" viewBox="0 0 215 24" id="logo-white" xmlns="http://www.w3.org/2000/svg"><path fill-rule="evenodd" clip-rule="evenodd" d="M16.517 6.914V23.22H8.26V6.914h8.258zM0 .8h8.259v6.114H0V.8z" fill="#003C5F"/><path fill-rule="evenodd" clip-rule="evenodd" d="M203.965 23.995c-3.487 0-7.433-.675-10.428-2.486l2.751-6.048c.663.374 1.297.7 2.009.987 2.097.846 4.798 1.414 7.073 1.114.486-.063 1.339-.214 1.339-.836 0-.742-1.301-.981-1.867-1.127-2.114-.545-4.134-.833-6.245-1.574-2.891-1.014-4.615-3.157-4.615-6.18 0-1.457.424-2.803 1.272-4.006C197.365.846 201.516 0 205.017 0c1.597 0 3.171.168 4.721.504 1.596.346 2.937.837 4.357 1.618l-2.57 6.014c-2.095-1.027-4.192-1.775-6.574-1.775-.951 0-1.653.107-2.108.32-.818.384-.764 1.17.116 1.502 2.191.829 4.944.987 7.358 1.818 2.911 1.003 4.683 3.095 4.683 6.15a6.741 6.741 0 01-1.273 3.99c-2.123 2.982-6.258 3.855-9.762 3.855zM24.635.805h25.14V6.91h-8.38v16.28h-8.38V6.91h-8.38V.805zm128.489 23.19c-3.487 0-7.433-.675-10.427-2.486l2.75-6.048c.663.374 1.298.7 2.01.987 2.097.846 4.798 1.414 7.072 1.114.486-.063 1.34-.214 1.34-.836 0-.742-1.302-.981-1.867-1.127-2.115-.545-4.134-.833-6.246-1.574-2.89-1.014-4.614-3.157-4.614-6.18 0-1.457.423-2.803 1.271-4.006C146.525.846 150.675 0 154.177 0c1.598 0 3.171.168 4.721.504 1.596.346 2.936.837 4.357 1.618l-2.571 6.014c-2.094-1.027-4.192-1.775-6.573-1.775-.951 0-1.654.107-2.109.32-.818.384-.763 1.17.117 1.502 2.191.829 4.944.987 7.358 1.818 2.91 1.003 4.683 3.095 4.683 6.15a6.748 6.748 0 01-1.273 3.99c-2.123 2.982-6.258 3.854-9.763 3.854zM184.36.805l-4.954 8.544-4.955-8.544h-9.217l9.982 16.28v6.105h8.379v-6.105l9.982-16.28h-9.217zM92.533 14.033h4.641l-2.32-8.266-2.32 8.266zm6.355 6.105H90.82l-.857 3.052h-8.379L87.868.805h13.972l6.285 22.385h-8.38l-.857-3.052zM129.42.805h8.379V23.19h-11.003l-5.966-10.055V23.19h-8.379V.805h9.444l7.524 12.683.001-12.683zM74.012 16.223l3.172 6.967h-8.38l-2.778-6.105h-4.134v6.105h-8.38V.805h16.76c4.607 0 8.378 3.663 8.378 8.14 0 3.173-1.894 5.936-4.638 7.278zM68.176 6.91h-6.284v4.07h6.284c.57 0 1.092-.23 1.474-.602a2 2 0 00.62-1.433 2 2 0 00-.62-1.433 2.116 2.116 0 00-1.474-.602z" fill="#fff"/><path fill-rule="evenodd" clip-rule="evenodd" d="M24.776 6.914V23.22h-8.259V6.914h8.259zM8.259.8h8.258v6.114H8.26V.8z" fill="#0A6397"/><path fill-rule="evenodd" clip-rule="evenodd" d="M33.034 6.914V23.22h-8.259V6.914h8.259zM16.517.8h8.259v6.114h-8.26V.8z" fill="#008DD2"/></svg></svg>