<?xml version="1.0" encoding="utf-8"?><svg viewBox="0 0 756 317" xmlns="http://www.w3.org/2000/svg" xmlns:xlink="http://www.w3.org/1999/xlink"><style>:root>svg{display:none}:root>svg:target{display:block}</style><svg fill="none" viewBox="0 0 56 56" id="check" xmlns="http://www.w3.org/2000/svg"><path fill-rule="evenodd" clip-rule="evenodd" d="M12.865 21.163a3.767 3.767 0 013.758-3.758h23.001c.89 0 1.712.314 2.356.835a.703.703 0 01-.884 1.094 2.332 2.332 0 00-1.472-.522H16.623a2.36 2.36 0 00-2.351 2.35v13.97a2.36 2.36 0 002.35 2.351h23.002c.624 0 1.194-.246 1.618-.65a.703.703 0 11.97 1.018 3.744 3.744 0 01-2.588 1.039H16.623a3.767 3.767 0 01-3.758-3.758v-13.97z" fill="#003C5F"/><path d="M22.688 22.85v-1.405l.182.005.18.014.177.022.174.032.172.04.168.048.165.056.161.064.158.072.152.079.148.086.144.092.138.1.134.106.128.112.123.118.116.124.111.13.105.133.098.14.092.145.085.149.078.153.07.158.064.162.056.165.047.17.04.171.03.175.023.178.013.18.005.182h-1.407l-.002-.112-.009-.11-.013-.108-.019-.107-.024-.104-.029-.102-.034-.1-.038-.098-.042-.096-.048-.093-.051-.09-.056-.088-.06-.084-.063-.082-.067-.078-.07-.076-.075-.07-.078-.068-.08-.064-.084-.06-.086-.056-.09-.052-.091-.047-.094-.043-.096-.039-.099-.034-.1-.029-.103-.023-.105-.02-.106-.013-.108-.008-.11-.003zm-2.13 2.156H19.15l.005-.182.014-.18.022-.178.03-.175.04-.172.048-.17.055-.165.064-.162.07-.157.078-.154.085-.149.092-.144.098-.14.105-.134.11-.13.118-.123.122-.118.129-.112.133-.106.139-.099.143-.093.148-.086.153-.08.157-.07.162-.065.164-.056.169-.048.172-.04.174-.032.178-.023.18-.014.181-.004v1.404l-.11.004-.108.008-.106.013-.105.02-.102.023-.1.03-.1.033-.096.038-.094.043-.092.048-.09.051-.085.057-.084.06-.081.064-.077.067-.075.071-.07.076-.068.078-.063.082-.06.084-.055.088-.052.09-.047.093-.043.096-.038.098-.034.1-.029.102-.024.104-.019.107-.013.108-.008.11-.003.113v-.002zm2.13 2.157v1.404l-.181-.004-.18-.014-.178-.023-.174-.032-.172-.04-.169-.048-.165-.056-.161-.064-.157-.072-.152-.079-.148-.086-.144-.093-.139-.1-.133-.105-.129-.112-.122-.118-.117-.123-.11-.13-.106-.134-.098-.14-.092-.145-.085-.149-.078-.153-.07-.158-.064-.162-.055-.165-.048-.169-.04-.172-.03-.175-.022-.177-.014-.18-.005-.183h1.407l.003.112.008.11.013.109.02.106.023.104.03.102.033.1.038.099.043.095.047.093.052.09.055.088.06.085.063.081.068.078.07.076.075.07.077.068.081.064.084.06.086.057.09.051.091.048.094.043.097.038.098.034.101.03.102.023.105.019.106.013.108.008.11.004v-.001zm2.131-2.157h1.407l-.005.182-.013.18-.022.178-.031.175-.04.172-.047.17-.056.164-.063.162-.07.158-.079.153-.085.15-.092.144-.098.14-.105.134-.11.13-.117.123-.123.118-.128.112-.134.106-.138.1-.144.092-.148.087-.152.079-.157.071-.162.064-.165.056-.168.049-.172.04-.174.031-.177.023-.18.014-.182.005v-1.405l.11-.003.108-.008.107-.014.105-.019.102-.023.1-.03.1-.033.096-.039.093-.043.092-.047.09-.052.086-.056.084-.06.08-.064.077-.067.075-.071.07-.076.068-.078.063-.081.06-.085.055-.087.052-.09.047-.094.043-.095.038-.098.034-.1.029-.103.024-.104.018-.106.014-.109.008-.11.003-.112zM29.9 24.459a.703.703 0 010-1.407v1.406zm3.993 0H29.9v-1.407h3.993v1.407zm0-1.407a.703.703 0 010 1.407v-1.407zM29.9 28.71a.703.703 0 010-1.407v1.406zm3.895 0H29.9v-1.407h3.895v1.406zm0-1.407a.703.703 0 010 1.407v-1.407zM28.158 34.148a.704.704 0 01-1.407 0h1.407zm0-1.29v1.29h-1.406v-1.29h1.406zm-3.77-2.364v-1.407l.192.005.192.014.188.024.186.034.182.042.18.051.175.06.171.068.167.075.162.084.158.091.153.098.148.105.142.112.137.119.13.124.125.131.119.137.112.142.105.148.098.153.091.158.084.162.076.168.068.171.06.176.05.179.043.182.033.186.024.188.015.191.004.193h-1.406l-.003-.121-.01-.12-.015-.118-.02-.116-.027-.113-.032-.112-.037-.109-.042-.107-.048-.104-.053-.102-.057-.1-.062-.095-.065-.093-.071-.09-.075-.086-.079-.083-.082-.079-.087-.075-.09-.07-.092-.067-.096-.061-.099-.058-.102-.052-.105-.048-.107-.042-.109-.037-.111-.032-.114-.026-.115-.021-.118-.015-.12-.01-.121-.003zm-3.401-1.407h3.4v1.407h-3.4v-1.407zm-2.364 3.771h-1.407l.005-.193.014-.191.024-.189.033-.185.043-.183.05-.179.06-.175.069-.172.076-.166.083-.163.09-.158.1-.153.105-.148.112-.141.118-.137.125-.131.13-.125.138-.118.141-.112.148-.105.154-.099.157-.09.163-.084.167-.076.171-.068.175-.06.18-.05.182-.043.186-.033.188-.024.19-.015.194-.004v1.406l-.121.003-.12.01-.118.015-.115.02-.114.027-.111.032-.11.037-.106.042-.105.048-.102.052-.1.058-.095.061-.093.066-.09.071-.086.075-.082.079-.08.082-.074.087-.07.09-.067.092-.061.096-.057.099-.053.102-.048.105-.042.107-.037.109-.032.111-.026.114-.021.115-.015.118-.01.12-.003.121zm-1.407 1.29v-1.29h1.407v1.29h-1.407zm1.407 0a.704.704 0 01-1.407 0h1.406z" fill="#003C5F"/><path fill-rule="evenodd" clip-rule="evenodd" d="M37.29 22.977v5.93c0 1.14.772 2.35 1.96 3.426 1.087.983 2.402 1.746 3.41 2.127 1.006-.381 2.322-1.144 3.408-2.127 1.189-1.076 1.96-2.285 1.96-3.426v-5.93c-1.8-.814-3.587-1.196-5.365-1.185h-.008c-1.778-.01-3.565.371-5.365 1.185zm-.703-.447l-.308-.632c2.113-1.029 4.242-1.525 6.38-1.513 2.139-.012 4.268.485 6.38 1.513a.703.703 0 01.396.632v6.377c0 1.744-1.138 3.306-2.423 4.469-1.304 1.18-2.906 2.086-4.128 2.498a.704.704 0 01-.45 0c-1.222-.412-2.823-1.317-4.128-2.498-1.284-1.163-2.423-2.725-2.423-4.469V22.53h.704z" fill="#003C5F"/><path fill-rule="evenodd" clip-rule="evenodd" d="M46.18 25.365a.703.703 0 010 .994l-3.205 3.204a.703.703 0 01-.995 0l-1.641-1.642a.703.703 0 01.995-.994l1.144 1.144 2.706-2.706a.703.703 0 01.995 0z" fill="#003C5F"/><path fill-rule="evenodd" clip-rule="evenodd" d="M28 54c14.36 0 26-11.64 26-26S42.36 2 28 2 2 13.64 2 28s11.64 26 26 26zm0 2c15.464 0 28-12.536 28-28S43.464 0 28 0 0 12.536 0 28s12.536 28 28 28z" fill="#008DD2"/></svg><svg fill="none" viewBox="0 0 756 317" id="cloud-ship" xmlns="http://www.w3.org/2000/svg"><path d="M390.401 108.686h161.631" stroke="#074F79" stroke-width="4" stroke-miterlimit="10" stroke-linecap="round" stroke-linejoin="round"/><path d="M609.62 71.39l-32.919 38.576c-1.522 1.761-2.403 3.842-2.723 6.163l-1.122 9.044H218.117c-.72 0-1.281-.56-1.281-1.281v-11.765c0-.08 0-.24-.08-.24L201.858 72.83a5.187 5.187 0 014.886-7.043h12.495c.721 0 1.281-.56 1.281-1.28V34.094c0-.72.561-1.28 1.282-1.28h10.973c.721 0 1.281-.561 1.281-1.281V25.53c0-.72.561-1.28 1.282-1.28h6.007c.721 0 1.281.56 1.281 1.28v6.003c0 .72.561 1.28 1.282 1.28h40.848c.721 0 1.282.56 1.282 1.28v30.414c0 .72.56 1.28 1.281 1.28h8.971c.64 0 1.201.48 1.201 1.12.561 6.003 5.687 10.725 11.854 10.725H533.29c6.167 0 11.293-4.722 11.854-10.724.08-.64.56-1.12 1.201-1.12h60.551c2.724-.08 4.406 3.2 2.724 5.602z" stroke="#074F79" stroke-width="4" stroke-miterlimit="10" stroke-linejoin="round"/><path d="M594.013 75.392a2.733 2.733 0 01-2.735 2.732 2.733 2.733 0 01-2.735-2.732 2.733 2.733 0 012.735-2.732 2.733 2.733 0 012.735 2.732z" stroke="#074F79" stroke-width="3.5"/><path d="M403.616 58.985h-35.482c-.961 0-1.682.8-1.682 1.68v12.326c0 .96.801 1.68 1.682 1.68h35.482c.962 0 1.682-.8 1.682-1.68V60.665c.08-.88-.72-1.68-1.682-1.68zm-42.129-18.328h-35.482c-.961 0-1.682.8-1.682 1.68v12.326c0 .96.801 1.68 1.682 1.68h35.482c.961 0 1.682-.8 1.682-1.68V42.338c0-.96-.721-1.681-1.682-1.681zm42.129 0h-35.482c-.961 0-1.682.8-1.682 1.68v12.326c0 .96.801 1.68 1.682 1.68h35.482c.962 0 1.682-.8 1.682-1.68V42.338c.08-.96-.72-1.681-1.682-1.681zm-42.129 18.328h-35.482c-.961 0-1.682.8-1.682 1.68v12.326c0 .96.801 1.68 1.682 1.68h35.482c.961 0 1.682-.8 1.682-1.68V60.665c0-.88-.721-1.68-1.682-1.68zm158.507-18.328h-17.221c-.961 0-1.681.8-1.681 1.68v30.654c0 .96.8 1.68 1.681 1.68h17.221c.961 0 1.682-.8 1.682-1.68V42.337c0-.96-.721-1.68-1.682-1.68zm-24.509 0h-17.22c-.962 0-1.682.8-1.682 1.68v30.654c0 .96.801 1.68 1.682 1.68h17.22c.961 0 1.682-.8 1.682-1.68V42.337c0-.96-.721-1.68-1.682-1.68zm-24.749 0h-17.221c-.961 0-1.682.8-1.682 1.68v30.654c0 .96.801 1.68 1.682 1.68h17.221c.961 0 1.682-.8 1.682-1.68V42.337c.08-.96-.721-1.68-1.682-1.68zm-24.75 0h-35.481c-.962 0-1.682.8-1.682 1.68v12.326c0 .96.8 1.68 1.682 1.68h35.481c.962 0 1.682-.8 1.682-1.68V42.338c0-.96-.801-1.681-1.682-1.681zm0 18.328h-35.481c-.962 0-1.682.8-1.682 1.68v12.326c0 .96.8 1.68 1.682 1.68h35.481c.962 0 1.682-.8 1.682-1.68V60.665c0-.88-.801-1.68-1.682-1.68z" fill="#074F79"/><path d="M280.111 38.496h-6.488v6.483h6.488v-6.483zM270.019 38.496h-6.488v6.483h6.488v-6.483zM260.007 38.656h-6.487v6.483h6.487v-6.483zM249.995 38.656h-6.488v6.483h6.488v-6.483z" stroke="#074F79" stroke-width="4" stroke-miterlimit="10" stroke-linejoin="round"/><path d="M214.834 65.707h56.867M599.768 148.303l-4.245-2.561a14.142 14.142 0 00-14.337-.16l-.881.48c-4.565 2.561-10.092 2.481-14.577-.32-4.325-2.642-9.691-2.882-14.177-.481l-2.082 1.121c-4.486 2.401-9.852 2.161-14.177-.48l-.16-.08a14 14 0 00-14.257-.4M753.893 169.105l-4.245-2.561a14.147 14.147 0 00-14.337-.16l-.881.48c-4.565 2.561-10.092 2.481-14.577-.32-4.325-2.641-9.691-2.881-14.177-.48l-2.082 1.12c-4.486 2.401-9.852 2.161-14.177-.48l-.16-.08a14.005 14.005 0 00-14.257-.4M80.893 126.105l-4.245-2.561a14.147 14.147 0 00-14.337-.16l-.88.48c-4.566 2.561-10.093 2.481-14.578-.32-4.325-2.641-9.691-2.881-14.177-.48l-2.082 1.12c-4.486 2.401-9.852 2.161-14.177-.48l-.16-.08a14.004 14.004 0 00-14.257-.4M650.782 225.507l-2.463-1.691c-2.557-1.743-5.717-1.796-8.32-.105l-.511.317c-2.65 1.691-5.857 1.638-8.46-.212-2.509-1.743-5.624-1.902-8.226-.317l-1.209.74c-2.603 1.585-5.717 1.427-8.227-.317l-.093-.053c-2.51-1.796-5.67-1.902-8.273-.264M326.159 153.36l-4.245-2.561a14.147 14.147 0 00-14.337-.16l-.881.48c-4.565 2.561-10.092 2.481-14.577-.32-4.325-2.641-9.691-2.881-14.177-.48l-2.082 1.12c-4.485 2.401-9.852 2.161-14.177-.48l-.16-.08a14.005 14.005 0 00-14.257-.4M466.893 314.105l-4.245-2.561a14.147 14.147 0 00-14.337-.16l-.881.48c-4.565 2.561-10.092 2.481-14.577-.32-4.325-2.641-9.691-2.881-14.177-.48l-2.082 1.12c-4.486 2.401-9.852 2.161-14.177-.48l-.16-.08a14.005 14.005 0 00-14.257-.4M444.882 188.278l-4.245-2.561a14.145 14.145 0 00-14.336-.16l-.882.48c-4.565 2.561-10.091 2.481-14.577-.32-4.325-2.641-9.691-2.881-14.176-.48l-2.083 1.12c-4.485 2.402-9.852 2.161-14.177-.48l-.16-.08a14.005 14.005 0 00-14.257-.4M506.893 200.105l-4.245-2.561a14.147 14.147 0 00-14.337-.16l-.881.48c-4.565 2.561-10.092 2.481-14.577-.32-4.325-2.641-9.691-2.881-14.177-.48l-2.082 1.12c-4.486 2.401-9.852 2.161-14.177-.48l-.16-.08a14.005 14.005 0 00-14.257-.4M632.782 237.731l-2.463-1.268c-2.557-1.308-5.717-1.347-8.32-.079l-.511.238c-2.65 1.268-5.857 1.228-8.46-.159-2.509-1.308-5.624-1.426-8.226-.238l-1.209.555c-2.603 1.189-5.717 1.07-8.227-.238l-.093-.039c-2.51-1.348-5.67-1.427-8.273-.198M506.618 145.182a14.147 14.147 0 00-14.337-.16l-.881.48c-4.565 2.561-10.092 2.481-14.577-.32-4.325-2.641-9.691-2.881-14.177-.48l-2.082 1.12M572.696 125.093c2.243-.08 4.486-.72 6.488-1.841l.881-.48c4.565-2.561 10.092-2.481 14.577.32 4.325 2.641 9.692 2.881 14.177.48l2.082-1.12M253.52 2v30.413" stroke="#074F79" stroke-width="4" stroke-miterlimit="10" stroke-linecap="round" stroke-linejoin="round"/><path d="M668.81 123.252l-39.006-.16c-2.643 0-5.286-.56-7.849-1.441-3.684-1.28-7.769-.96-11.293.881l-2.083 1.12M208.28 124.415a14.147 14.147 0 00-14.337-.16l-.881.481c-4.565 2.561-10.092 2.481-14.577-.321-4.325-2.641-9.692-2.881-14.177-.48l-2.082 1.121c-4.486 2.401-9.852 2.161-14.177-.48l-.16-.081a14.291 14.291 0 00-11.934-1.44c-2.243.72-4.566.96-6.888.96H99.832M187.215 141.783l-.881.48c-4.565 2.561-10.092 2.481-14.577-.32-4.325-2.641-9.692-2.881-14.177-.48-1.361.72-2.883 1.121-4.405 1.121h-26.912" stroke="#074F79" stroke-width="4" stroke-miterlimit="10" stroke-linecap="round" stroke-linejoin="round"/></svg><svg fill="none" viewBox="0 0 473 175" id="cloud-ship-lg" xmlns="http://www.w3.org/2000/svg"><path d="M207.984 79.18h116.93" stroke="#074F79" stroke-width="3" stroke-miterlimit="10" stroke-linecap="round" stroke-linejoin="round"/><path d="M366.576 52.2l-23.815 27.907c-1.101 1.274-1.738 2.78-1.97 4.458l-.811 6.543H83.348a.915.915 0 01-.927-.927v-8.51c0-.059 0-.175-.058-.175L71.585 53.242a3.752 3.752 0 013.535-5.095h9.04a.915.915 0 00.926-.926V25.218c0-.521.406-.927.927-.927h7.939a.915.915 0 00.927-.926v-4.342c0-.522.405-.927.927-.927h4.346c.521 0 .927.405.927.927v4.342c0 .521.405.926.927.926h29.551c.521 0 .927.406.927.927V47.22c0 .52.406.926.927.926h6.49c.463 0 .869.348.869.81.406 4.343 4.114 7.76 8.576 7.76h162.01c4.461 0 8.17-3.417 8.575-7.76.058-.462.406-.81.869-.81h43.806c1.97-.058 3.186 2.316 1.97 4.053z" stroke="#074F79" stroke-width="3" stroke-miterlimit="10" stroke-linejoin="round"/><path d="M353.306 58.337a3.243 3.243 0 100-6.485 3.243 3.243 0 100 6.485z" stroke="#074F79" stroke-width="3"/><path d="M217.544 43.225h-25.669c-.695 0-1.216.579-1.216 1.216v8.916c0 .695.579 1.216 1.216 1.216h25.669c.696 0 1.217-.579 1.217-1.216v-8.916c.058-.637-.521-1.216-1.217-1.216zm-30.478-13.26h-25.669c-.695 0-1.217.58-1.217 1.217v8.916c0 .695.58 1.216 1.217 1.216h25.669c.695 0 1.217-.579 1.217-1.216v-8.916c0-.695-.522-1.216-1.217-1.216zm30.478 0h-25.669c-.695 0-1.216.58-1.216 1.217v8.916c0 .695.579 1.216 1.216 1.216h25.669c.696 0 1.217-.579 1.217-1.216v-8.916c.058-.695-.521-1.216-1.217-1.216zm-30.478 13.26h-25.669c-.695 0-1.217.579-1.217 1.216v8.916c0 .695.58 1.216 1.217 1.216h25.669c.695 0 1.217-.579 1.217-1.216v-8.916c0-.637-.522-1.216-1.217-1.216zm114.67-13.26h-12.458c-.695 0-1.216.58-1.216 1.217v22.175c0 .695.579 1.216 1.216 1.216h12.458c.696 0 1.217-.579 1.217-1.216V31.182c0-.695-.521-1.216-1.217-1.216zm-17.73 0h-12.458c-.696 0-1.217.58-1.217 1.217v22.175c0 .695.579 1.216 1.217 1.216h12.458c.695 0 1.216-.579 1.216-1.216V31.182c0-.695-.521-1.216-1.216-1.216zm-17.905 0h-12.458c-.695 0-1.217.58-1.217 1.217v22.175c0 .695.58 1.216 1.217 1.216h12.458c.695 0 1.217-.579 1.217-1.216V31.182c.058-.695-.522-1.216-1.217-1.216zm-17.905 0h-25.669c-.695 0-1.216.58-1.216 1.217v8.916c0 .695.579 1.216 1.216 1.216h25.669c.696 0 1.217-.579 1.217-1.216v-8.916c0-.695-.579-1.216-1.217-1.216zm0 13.26h-25.669c-.695 0-1.216.579-1.216 1.216v8.916c0 .695.579 1.216 1.216 1.216h25.669c.696 0 1.217-.579 1.217-1.216v-8.916c0-.637-.579-1.216-1.217-1.216z" fill="#074F79"/><path d="M128.196 28.403h-4.693v4.69h4.693v-4.69zM120.895 28.403h-4.693v4.69h4.693v-4.69zM113.652 28.518h-4.693v4.69h4.693v-4.69zM106.409 28.518h-4.693v4.69h4.693v-4.69z" stroke="#074F79" stroke-width="3" stroke-miterlimit="10" stroke-linejoin="round"/><path d="M80.972 48.088h41.14M359.448 107.841l-3.071-1.853a10.235 10.235 0 00-10.372-.116l-.637.348c-3.303 1.853-7.301 1.795-10.546-.232-3.129-1.911-7.011-2.084-10.256-.347l-1.506.81c-3.245 1.737-7.127 1.564-10.256-.347l-.116-.058a10.13 10.13 0 00-10.314-.289M470.948 122.89l-3.071-1.853a10.235 10.235 0 00-10.372-.115l-.637.347c-3.303 1.853-7.301 1.795-10.546-.232-3.129-1.91-7.011-2.084-10.256-.347l-1.506.811c-3.245 1.737-7.127 1.563-10.256-.348l-.116-.058a10.132 10.132 0 00-10.314-.289M144.142 163.694l-1.782-1.223c-1.849-1.262-4.136-1.3-6.019-.077l-.37.229c-1.916 1.224-4.237 1.185-6.12-.152-1.815-1.262-4.068-1.377-5.951-.23l-.874.535c-1.883 1.147-4.136 1.032-5.952-.229l-.067-.038c-1.816-1.3-4.103-1.376-5.986-.191M161.509 111.5l-3.071-1.853a10.233 10.233 0 00-10.372-.116l-.637.347c-3.303 1.853-7.301 1.795-10.546-.231-3.129-1.911-7.011-2.085-10.256-.348l-1.507.811c-3.244 1.737-7.127 1.563-10.256-.348l-.115-.057a10.13 10.13 0 00-10.314-.29M247.397 136.761l-3.071-1.853a10.231 10.231 0 00-10.371-.116l-.638.348c-3.303 1.852-7.301 1.795-10.546-.232-3.129-1.911-7.011-2.084-10.256-.347l-1.506.81c-3.245 1.737-7.127 1.564-10.256-.347l-.116-.058a10.132 10.132 0 00-10.314-.29M292.259 145.317l-3.071-1.853a10.233 10.233 0 00-10.372-.116l-.637.348c-3.303 1.852-7.301 1.794-10.546-.232-3.129-1.911-7.011-2.084-10.256-.347l-1.506.81c-3.245 1.737-7.128 1.563-10.256-.347l-.116-.058a10.13 10.13 0 00-10.314-.29M131.121 172.537l-1.783-.917a6.829 6.829 0 00-6.018-.058l-.37.172c-1.917.918-4.237.889-6.12-.114-1.816-.946-4.069-1.032-5.952-.172l-.874.401c-1.883.86-4.136.774-5.952-.172l-.067-.029c-1.815-.974-4.102-1.032-5.985-.143M292.061 105.583a10.235 10.235 0 00-10.372-.115l-.638.347c-3.302 1.853-7.301 1.795-10.545-.232-3.129-1.91-7.012-2.084-10.256-.347l-1.507.811M339.863 91.05a10.425 10.425 0 004.693-1.331l.638-.348c3.302-1.853 7.301-1.795 10.545.232 3.129 1.91 7.012 2.084 10.256.347l1.507-.81M108.959 2v22.002" stroke="#074F79" stroke-width="3" stroke-miterlimit="10" stroke-linecap="round" stroke-linejoin="round"/><path d="M409.395 89.719l-28.218-.116c-1.912 0-3.824-.406-5.679-1.042-2.665-.927-5.62-.695-8.17.636l-1.506.811M76.23 90.56a10.234 10.234 0 00-10.37-.116l-.638.348c-3.303 1.852-7.301 1.794-10.546-.232-3.129-1.91-7.011-2.084-10.256-.347l-1.507.81c-3.244 1.737-7.127 1.564-10.256-.347l-.115-.058a10.337 10.337 0 00-8.634-1.042c-1.623.52-3.303.695-4.983.695h-21.15M60.992 103.125l-.637.347c-3.303 1.853-7.301 1.795-10.546-.232-3.129-1.91-7.011-2.084-10.256-.347a6.857 6.857 0 01-3.187.811H16.897" stroke="#074F79" stroke-width="3" stroke-miterlimit="10" stroke-linecap="round" stroke-linejoin="round"/></svg><svg fill="none" viewBox="0 0 56 56" id="experience" xmlns="http://www.w3.org/2000/svg"><path fill-rule="evenodd" clip-rule="evenodd" d="M17.355 19.576c-.862 0-1.57.708-1.57 1.57v14.776c0 .862.708 1.57 1.57 1.57h22.733c.862 0 1.57-.708 1.57-1.57V21.146c0-.862-.708-1.57-1.57-1.57H17.355zm-2.977 1.57a2.983 2.983 0 012.977-2.977h22.733a2.983 2.983 0 012.977 2.977v14.776a2.983 2.983 0 01-2.977 2.977H17.355a2.983 2.983 0 01-2.977-2.977V21.146z" fill="#003C5F"/><path fill-rule="evenodd" clip-rule="evenodd" d="M17.355 19.576c-.862 0-1.57.708-1.57 1.57v.682a5.409 5.409 0 005.435 5.434h2.693a.703.703 0 110 1.407H21.22a6.815 6.815 0 01-6.842-6.841v-.682a2.983 2.983 0 012.977-2.977h22.733a2.983 2.983 0 012.977 2.977v.682a6.815 6.815 0 01-6.841 6.841h-2.775a.703.703 0 010-1.407h2.775a5.409 5.409 0 005.434-5.434v-.682c0-.862-.708-1.57-1.57-1.57H17.355zM31.847 17.363c-.693-.987-1.807-1.593-3.118-1.578h-.008a3.801 3.801 0 00-3.144 1.638.704.704 0 01-1.152-.807 5.208 5.208 0 014.292-2.237c1.78-.02 3.325.815 4.281 2.176a.703.703 0 11-1.151.808z" fill="#003C5F"/><path fill-rule="evenodd" clip-rule="evenodd" d="M28.722 22.839a2.192 2.192 0 100 4.385 2.192 2.192 0 000-4.385zm-3.658 2.192a3.658 3.658 0 117.316 0 3.658 3.658 0 01-7.316 0z" fill="#003C5F"/><path fill-rule="evenodd" clip-rule="evenodd" d="M28.722 28.69a2.61 2.61 0 100 5.22 2.61 2.61 0 000-5.22zm-4.076 2.61a4.076 4.076 0 118.151 0 4.076 4.076 0 01-8.151 0z" fill="#003C5F"/><path fill-rule="evenodd" clip-rule="evenodd" d="M28 54c14.36 0 26-11.64 26-26S42.36 2 28 2 2 13.64 2 28s11.64 26 26 26zm0 2c15.464 0 28-12.536 28-28S43.464 0 28 0 0 12.536 0 28s12.536 28 28 28z" fill="#008DD2"/></svg><svg fill="none" viewBox="0 0 56 56" id="feedback" xmlns="http://www.w3.org/2000/svg"><path d="M24.802 27.132a.626.626 0 010-1.254v1.254zm7.758 0h-7.758v-1.254h7.758v1.254zm0-1.254a.626.626 0 010 1.254v-1.254z" fill="#003C5F"/><path d="M25.177 26.948a.627.627 0 01-.886-.886l.886.886zm1.555-1.554l-1.555 1.555-.886-.887 1.554-1.554.887.886zm-.887-.886a.627.627 0 01.887.886l-.887-.886zM32.492 28.18a.626.626 0 010 1.254v-1.253zm-7.758 0h7.758v1.254h-7.758v-1.253zm0 1.254a.626.626 0 010-1.253v1.253z" fill="#003C5F"/><path d="M32.117 28.364a.627.627 0 01.886.887l-.886-.887zm-1.554 1.555l1.554-1.555.886.887-1.554 1.554-.886-.886zm.886.886a.627.627 0 01-.886-.886l.886.886zM18.666 20.397V18.92l.239.006.236.018.233.03.23.042.225.053.221.063.217.074.212.084.206.094.2.104.196.113.188.121.182.131.176.14.168.146.162.155.153.163.146.17.138.177.13.183.12.19.111.196.103.202.093.208.083.212.073.218.063.222.052.226.04.23.03.235.018.236.007.24h-1.48l-.003-.166-.013-.163-.02-.161-.028-.158-.035-.155-.043-.152-.05-.15-.057-.145-.063-.142-.07-.138-.077-.134-.082-.13-.09-.126-.093-.121-.1-.116-.105-.112-.11-.106-.116-.1-.12-.096-.124-.089-.128-.083-.133-.077-.136-.07-.14-.064-.144-.057-.147-.05-.15-.044-.152-.035-.156-.028-.158-.02-.161-.013-.164-.004h-.003zm-3.17 3.204h-1.48l.007-.24.018-.236.03-.235.041-.23.052-.226.062-.222.073-.218.084-.212.093-.208.102-.202.112-.196.12-.19.13-.183.137-.177.146-.17.154-.162.161-.156.169-.147.175-.139.182-.13.189-.122.195-.114.2-.103.207-.094.212-.085.216-.073.221-.064.226-.052.23-.041.232-.03.237-.019.239-.006v1.477l-.164.004-.161.012-.158.02-.156.029-.153.035-.15.043-.146.05-.144.058-.14.064-.136.07-.133.076-.129.084-.124.089-.12.095-.115.1-.11.106-.105.112-.1.116-.094.121-.089.126-.082.13-.077.134-.07.139-.063.141-.057.146-.05.15-.043.15-.035.156-.028.158-.02.161-.013.164-.004.166h-.003zm3.17 3.205v1.476l-.239-.006-.236-.018-.233-.03-.23-.042-.225-.052-.221-.063-.217-.074-.212-.084-.206-.094-.2-.104-.196-.113-.188-.122-.182-.13-.176-.14-.168-.147-.162-.155-.153-.163-.146-.17-.138-.176-.13-.184-.12-.19-.111-.195-.103-.202-.093-.208-.083-.213-.073-.217-.063-.222-.052-.227-.04-.23-.03-.234-.018-.237-.007-.24h1.48l.003.166.013.164.02.16.028.159.036.155.042.152.05.149.057.146.063.141.07.139.077.134.082.13.09.125.093.122.1.116.105.111.11.106.116.101.12.095.124.09.129.083.132.076.136.07.14.064.144.058.147.05.15.043.152.035.156.028.158.02.161.013.164.004h.003zm3.17-3.205h1.48l-.007.24-.018.237-.03.234-.04.23-.053.227-.062.222-.073.217-.084.213-.092.207-.103.203-.112.195-.12.19-.13.184-.137.177-.146.17-.154.162-.161.155-.169.147-.175.14-.182.13-.189.122-.195.113-.2.104-.207.094-.212.084-.216.074-.221.063-.226.052-.23.042-.232.03-.237.018-.238.007v-1.477l.163-.004.161-.013.158-.02.156-.028.153-.036.15-.043.146-.05.144-.057.14-.064.136-.07.133-.077.129-.083.124-.09.12-.094.115-.101.11-.106.106-.112.1-.116.093-.12.089-.127.082-.13.077-.134.07-.138.063-.142.057-.146.05-.149.043-.151.035-.156.028-.157.02-.162.013-.163.004-.166h.003zM25.981 36.21a.74.74 0 01-1.479 0h1.48zm0-1.779v1.78h-1.479v-1.78h1.48zm-4.97-3.49v-1.48l.255.007.251.02.249.03.245.045.24.056.236.067.23.079.226.089.22.1.214.11.208.12.201.129.195.139.188.147.18.156.173.165.164.172.156.18.148.188.139.195.13.202.119.207.11.214.1.22.09.226.078.231.067.236.056.24.044.245.031.248.02.252.006.254h-1.479l-.004-.179-.014-.176-.022-.174-.03-.17-.04-.17-.047-.165-.055-.161-.063-.158-.07-.154-.078-.15-.084-.147-.092-.142-.097-.137-.104-.133-.11-.127-.117-.122-.122-.116-.126-.11-.133-.104-.137-.097-.142-.092-.146-.084-.15-.078-.155-.07-.158-.063-.161-.055-.165-.047-.168-.039-.17-.03-.174-.023-.177-.014-.18-.004.001.001zm-4.69-1.48h4.69v1.48h-4.69v-1.48zm-3.49 4.97h-1.48l.007-.254.02-.252.031-.248.044-.245.056-.24.067-.236.08-.23.088-.226.1-.22.11-.215.12-.208.13-.201.139-.195.147-.188.156-.18.165-.173.173-.164.18-.157.188-.147.194-.139.202-.129.208-.12.215-.11.22-.1.225-.09.231-.078.236-.068.24-.055.244-.045.25-.031.25-.02.255-.006v1.479l-.18.004-.176.014-.173.022-.171.03-.169.04-.164.047-.162.055-.158.063-.155.07-.15.078-.147.084-.141.091-.137.098-.133.104-.127.11-.122.116-.115.122-.11.127-.105.132-.097.137-.092.142-.084.147-.077.15-.07.154-.063.158-.055.162-.048.165-.04.169-.03.17-.022.174-.014.176-.004.18zm-1.48 1.78v-1.78h1.48v1.78h-1.48zm1.48 0a.74.74 0 01-1.48 0h1.48zM38.894 20.397V18.92l.239.006.236.018.233.03.23.042.224.053.222.063.216.074.212.084.206.094.201.104.195.113.188.121.183.131.175.14.169.146.16.155.155.163.146.17.137.176.13.184.12.19.112.196.102.202.093.208.083.212.074.218.062.222.052.226.04.23.03.235.019.236.006.24h-1.479l-.004-.166-.013-.163-.02-.161-.028-.158-.035-.155-.043-.152-.05-.15-.057-.145-.063-.142-.07-.138-.077-.134-.082-.13-.089-.126-.094-.121-.1-.116-.105-.112-.11-.106-.116-.1-.12-.096-.124-.089-.129-.083-.133-.077-.136-.07-.14-.064-.143-.057-.147-.05-.15-.043-.153-.035-.156-.028-.158-.02-.16-.013-.164-.004-.002-.001zm-3.17 3.204h-1.48l.007-.24.018-.236.03-.235.04-.23.053-.226.062-.222.073-.218.083-.212.093-.208.103-.202.112-.196.12-.19.13-.183.137-.177.146-.17.154-.162.161-.156.168-.147.176-.139.182-.13.189-.122.194-.114.201-.103.207-.094.211-.085.217-.073.221-.064.226-.052.23-.041.232-.03.236-.019.24-.006v1.477l-.164.004-.161.012-.159.02-.155.029-.153.035-.15.043-.147.05-.143.058-.14.064-.137.07-.132.076-.129.084-.124.089-.12.095-.115.1-.11.106-.105.112-.1.116-.094.121-.09.126-.082.13-.076.134-.07.139-.063.141-.058.146-.05.15-.042.15-.035.156-.028.158-.02.161-.013.164-.004.166h-.003zm3.17 3.205v1.476l-.24-.006-.235-.018-.233-.03-.23-.042-.225-.052-.222-.063-.216-.074-.212-.084-.206-.094-.201-.104-.195-.113-.188-.122-.183-.13-.175-.14-.168-.147-.162-.155-.154-.163-.145-.17-.138-.176-.13-.184-.12-.19-.111-.195-.103-.202-.093-.208-.083-.213-.074-.217-.062-.222-.052-.227-.04-.23-.03-.234-.019-.237-.006-.24h1.48l.003.166.013.164.02.16.028.159.035.155.043.152.05.149.057.146.063.141.07.139.077.134.082.13.089.125.094.122.1.116.105.111.11.106.115.101.12.095.124.09.13.083.132.076.136.07.14.064.144.058.147.05.15.043.152.035.156.028.158.02.161.013.164.004h.003zm3.17-3.205h1.479l-.006.24-.018.237-.03.234-.041.23-.052.227-.062.222-.074.217-.083.213-.093.207-.102.203-.112.195-.12.19-.13.184-.137.177-.146.17-.154.162-.162.155-.168.147-.175.14-.183.13-.188.122-.195.113-.2.104-.207.094-.212.084-.216.074-.222.063-.225.052-.229.042-.233.03-.236.018-.24.007v-1.477l.164-.004.161-.013.158-.02.156-.028.153-.036.15-.043.147-.05.143-.056.14-.064.136-.07.133-.077.129-.083.124-.09.12-.095.115-.1.11-.107.106-.111.1-.116.094-.121.089-.126.082-.13.077-.134.07-.139.063-.141.057-.146.05-.15.043-.15.035-.156.028-.158.02-.161.013-.163.004-.167h.002zM46.209 36.21a.74.74 0 01-1.48 0h1.48zm0-1.779v1.78h-1.48v-1.78h1.48zm-4.97-3.49v-1.48l.254.007.251.02.249.03.245.045.24.056.236.067.23.079.226.089.22.1.214.11.208.12.202.129.194.139.188.147.18.156.173.165.164.172.156.18.148.188.139.195.13.202.12.207.11.214.099.22.09.226.078.231.067.236.056.24.044.245.032.248.019.252.006.254h-1.479l-.004-.179-.014-.176-.022-.174-.03-.17-.04-.17-.047-.165-.055-.161-.063-.158-.07-.154-.078-.15-.084-.147-.092-.142-.097-.137-.104-.133-.11-.127-.117-.122-.122-.116-.126-.11-.133-.104-.137-.097-.142-.092-.146-.084-.15-.078-.155-.07-.158-.063-.161-.055-.165-.047-.168-.039-.17-.03-.174-.023-.177-.014-.179-.004v.001zm-4.69-1.48h4.69v1.48h-4.69v-1.48zm-3.492 4.97h-1.479l.007-.254.02-.252.031-.248.044-.245.056-.24.067-.236.08-.23.088-.226.1-.22.11-.215.12-.208.13-.201.139-.195.147-.188.156-.18.165-.173.173-.164.18-.157.188-.147.194-.139.202-.129.208-.12.215-.11.22-.1.225-.09.231-.078.236-.068.24-.055.244-.045.25-.031.25-.02.255-.006v1.479l-.18.004-.176.014-.173.022-.171.03-.169.04-.164.047-.163.055-.157.063-.155.07-.15.078-.147.084-.141.091-.137.098-.133.104-.127.11-.122.116-.115.122-.11.127-.105.132-.097.137-.092.142-.084.147-.077.15-.07.154-.063.158-.055.162-.048.165-.04.169-.03.17-.022.174-.014.176-.004.18zm-1.479 1.78v-1.78h1.48v1.78h-1.48zm1.48 0a.74.74 0 01-1.48 0h1.48z" fill="#003C5F"/><path fill-rule="evenodd" clip-rule="evenodd" d="M28 54c14.36 0 26-11.64 26-26S42.36 2 28 2 2 13.64 2 28s11.64 26 26 26zm0 2c15.464 0 28-12.536 28-28S43.464 0 28 0 0 12.536 0 28s12.536 28 28 28z" fill="#008DD2"/></svg><svg fill="none" viewBox="0 0 56 56" id="guarantee" xmlns="http://www.w3.org/2000/svg"><path fill-rule="evenodd" clip-rule="evenodd" d="M28.804 15.786c-3.65-.022-7.307.755-10.977 2.397l-.012.006a.863.863 0 00-.516.81v11.808c0 2.599 1.737 5.208 4.177 7.417 2.337 2.116 5.187 3.742 7.333 4.51 2.145-.768 4.996-2.394 7.333-4.51 2.439-2.209 4.177-4.818 4.177-7.417V18.998a.863.863 0 00-.528-.815c-3.67-1.643-7.328-2.42-10.978-2.398h-.009zm.005-1.407c-3.856-.022-7.706.8-11.541 2.514a2.27 2.27 0 00-1.376 2.106v11.807c0 3.203 2.104 6.165 4.64 8.46 2.554 2.314 5.69 4.083 8.052 4.878.146.05.303.05.45 0 2.36-.795 5.497-2.564 8.052-4.877 2.535-2.296 4.64-5.258 4.64-8.46V18.998a2.27 2.27 0 00-1.36-2.1m0 0c-3.842-1.718-7.696-2.543-11.557-2.52l11.556 2.52z" fill="#003C5F"/><path d="M26.028 19.566a.705.705 0 011.41.011l-1.41-.01zm-.005.605l.005-.605 1.41.011-.004.604-1.411-.01zm1.41.01a.705.705 0 01-1.41-.01l1.41.01zm-1.411 3.562a.705.705 0 011.411 0H26.022zm.004 6.518l-.004-6.518 1.41-.001.005 6.518-1.41.001zm1.411 0a.705.705 0 01-1.411 0l1.41-.001h.001zm-1.41 2.39v-2.39h1.41v2.39h-1.41zm1.41 0a.705.705 0 01-1.411 0H27.437zm-1.41 3.512a.705.705 0 011.41 0h-1.41zm0 .483v-.483h1.41v.483h-1.41zm1.41 0a.705.705 0 01-1.411 0H27.437z" fill="#003C5F"/><path fill-rule="evenodd" clip-rule="evenodd" d="M25.831 22.684a2.403 2.403 0 00-2.394 2.394c0 .982.603 1.836 1.462 2.203a.703.703 0 01-.552 1.294 3.812 3.812 0 01-2.317-3.497 3.81 3.81 0 013.801-3.801h3.091a.703.703 0 110 1.407h-3.09zm2.011 5.49c0-.388.315-.703.704-.703h.773a.703.703 0 010 1.407h-.773a.703.703 0 01-.704-.703zm4.566-.017a.703.703 0 01.93-.353 3.81 3.81 0 012.249 3.468 3.81 3.81 0 01-3.801 3.8h-2.671a.703.703 0 110-1.406h2.67a2.403 2.403 0 002.395-2.394c0-.966-.582-1.808-1.419-2.185a.703.703 0 01-.353-.93z" fill="#003C5F"/><path fill-rule="evenodd" clip-rule="evenodd" d="M27.468 21.98c0-.389.315-.704.704-.704h3.255a4.27 4.27 0 013.571 1.94.703.703 0 11-1.177.77 2.864 2.864 0 00-2.394-1.303h-3.255a.703.703 0 01-.704-.703zM22.491 32.16a.703.703 0 01.974.203 2.864 2.864 0 002.395 1.303h3.255a.703.703 0 110 1.406H25.86a4.27 4.27 0 01-3.572-1.94.703.703 0 01.203-.973z" fill="#003C5F"/><path d="M30.403 19.566a.705.705 0 011.41.011l-1.41-.01zm-.005.605l.005-.605 1.41.011-.004.604-1.411-.01zm1.41.01a.705.705 0 01-1.41-.01l1.41.01zm-1.411 3.562a.705.705 0 011.411 0H30.397zm.004 6.518l-.004-6.518 1.41-.001.005 6.518-1.41.001zm1.411 0a.705.705 0 01-1.411 0l1.41-.001h.001zm-1.41 2.39v-2.39h1.41v2.39h-1.41zm1.41 0a.705.705 0 01-1.411 0H31.812zm-1.41 3.512a.705.705 0 011.41 0h-1.41zm0 .483v-.483h1.41v.483h-1.41zm1.41 0a.705.705 0 01-1.411 0H31.812z" fill="#003C5F"/><path fill-rule="evenodd" clip-rule="evenodd" d="M28 54c14.36 0 26-11.64 26-26S42.36 2 28 2 2 13.64 2 28s11.64 26 26 26zm0 2c15.464 0 28-12.536 28-28S43.464 0 28 0 0 12.536 0 28s12.536 28 28 28z" fill="#008DD2"/></svg><svg fill="none" viewBox="0 0 56 56" id="insurance" xmlns="http://www.w3.org/2000/svg"><path fill-rule="evenodd" clip-rule="evenodd" d="M17.405 14.325c0-.388.315-.703.704-.703H33.57c.187 0 .365.074.497.206l5.609 5.608c.132.132.206.31.206.497v4.837a.703.703 0 01-1.407 0v-4.546l-5.196-5.195H18.812v27.778h20.366a.703.703 0 110 1.407h-21.07a.703.703 0 01-.703-.703V14.325z" fill="#003C5F"/><path d="M32.87 14.325c0-.388.313-.703.7-.703.388 0 .702.315.702.703H32.87zm0 5.608v-5.608h1.401v5.608H32.87zm1.401 0a.702.702 0 01-.7.704.703.703 0 01-.702-.704h1.402z" fill="#003C5F"/><path fill-rule="evenodd" clip-rule="evenodd" d="M32.867 19.933c0-.389.315-.703.703-.703h5.608a.703.703 0 110 1.406H33.57a.703.703 0 01-.703-.703zM32.751 28.794v5.93c0 1.14.772 2.35 1.96 3.425 1.087.984 2.403 1.746 3.41 2.128 1.006-.382 2.322-1.144 3.408-2.128 1.189-1.076 1.96-2.285 1.96-3.425v-5.93c-1.8-.814-3.586-1.196-5.365-1.186h-.008c-1.778-.01-3.565.371-5.365 1.186zm-.703-.447l-.308-.633c2.113-1.028 4.242-1.525 6.38-1.513 2.139-.012 4.268.485 6.38 1.513a.703.703 0 01.397.633v6.377c0 1.743-1.139 3.305-2.424 4.468-1.304 1.181-2.905 2.086-4.128 2.498a.704.704 0 01-.45 0c-1.222-.412-2.823-1.317-4.128-2.498-1.284-1.163-2.423-2.725-2.423-4.468v-6.377h.704z" fill="#003C5F"/><path fill-rule="evenodd" clip-rule="evenodd" d="M41.642 31.181a.703.703 0 010 .995l-3.204 3.204a.703.703 0 01-.995 0L35.8 33.738a.703.703 0 01.995-.995l1.144 1.145 2.707-2.707a.703.703 0 01.995 0z" fill="#003C5F"/><path d="M22.216 20.464c.47 0 .87-.166 1.2-.497a.346.346 0 00.105-.254.343.343 0 00-.104-.252.343.343 0 00-.252-.104c-.1 0-.185.035-.254.104a.947.947 0 01-.695.289.946.946 0 01-.694-.289.947.947 0 01-.288-.694.95.95 0 01.288-.697.947.947 0 01.694-.288c.27 0 .502.096.695.288.07.071.154.107.254.107a.34.34 0 00.252-.107.343.343 0 00.104-.252.343.343 0 00-.104-.252 1.632 1.632 0 00-1.2-.499c-.47 0-.87.167-1.201.5a1.63 1.63 0 00-.497 1.2c0 .469.165.87.497 1.2.331.332.731.498 1.2.498v-.001zm2.654-3.29a.36.36 0 00-.39-.08.359.359 0 00-.22.331v2.68c0 .1.034.185.103.255.07.07.155.104.255.104a.344.344 0 00.251-.104.346.346 0 00.105-.255v-1.818l.73.73c.07.07.154.105.252.105.1 0 .184-.035.254-.104l.73-.73v1.817c0 .1.035.185.105.255.07.07.154.104.252.104a.344.344 0 00.252-.104.343.343 0 00.107-.255v-2.68a.35.35 0 00-.061-.2.356.356 0 00-.55-.052l-1.09 1.088-1.087-1.088h.002zm5.99 1.145a.517.517 0 01-.16.38.516.516 0 01-.379.156h-.982v-1.073h.982c.148 0 .275.053.38.159.105.104.158.23.158.379zm-.686 1.25l.79.79c.07.07.153.105.251.105a.35.35 0 00.254-.104.346.346 0 00.105-.255.343.343 0 00-.105-.252l-.479-.478c.18-.114.32-.262.423-.445.107-.19.16-.393.16-.61 0-.346-.122-.64-.367-.886a1.206 1.206 0 00-.885-.368h-1.339c-.1 0-.184.036-.254.107a.343.343 0 00-.104.252v2.68c0 .1.035.185.104.254.07.07.154.104.254.104a.343.343 0 00.252-.104.346.346 0 00.104-.254v-.536h.835zM26.5 25.023c-.311 0-.564-.316-.564-.707 0-.39.252-.707.563-.707v1.414zm7.7 0h-7.7v-1.414h7.7v1.414zm0-1.414c.31 0 .562.317.562.707 0 .39-.252.707-.563.707v-1.414zM21.413 25.021a.705.705 0 010-1.41v1.41zm2.028 0h-2.028v-1.41h2.028v1.41zm0-1.41a.705.705 0 010 1.41v-1.41z" fill="#003C5F"/><path fill-rule="evenodd" clip-rule="evenodd" d="M25.796 27.56c0-.389.315-.704.704-.704h2.652a.703.703 0 010 1.407H26.5a.703.703 0 01-.704-.703z" fill="#003C5F"/><path d="M21.412 28.263a.704.704 0 010-1.407v1.407zm2.028 0h-2.028v-1.407h2.028v1.407zm0-1.407a.704.704 0 010 1.408v-1.407z" fill="#003C5F"/><path fill-rule="evenodd" clip-rule="evenodd" d="M25.796 30.803c0-.388.315-.703.704-.703h2.735a.703.703 0 110 1.407H26.5a.703.703 0 01-.704-.704z" fill="#003C5F"/><path d="M21.412 31.506a.704.704 0 010-1.407v1.407zm2.028 0h-2.028V30.1h2.028v1.406zm0-1.406a.704.704 0 010 1.407V30.1zM21.412 37.989a.702.702 0 01-.703-.7c0-.385.315-.698.703-.698v1.397zm7.976 0h-7.976V36.59h7.976v1.398zm0-1.398c.389 0 .704.313.704.7a.702.702 0 01-.704.698v-1.397z" fill="#003C5F"/><path fill-rule="evenodd" clip-rule="evenodd" d="M25.796 34.047c0-.389.315-.704.704-.704h2.735a.703.703 0 110 1.407H26.5a.703.703 0 01-.704-.703z" fill="#003C5F"/><path d="M21.412 34.75a.704.704 0 010-1.407V34.75zm2.028 0h-2.028v-1.407h2.028v1.407zm0-1.407a.704.704 0 010 1.407v-1.406z" fill="#003C5F"/><path fill-rule="evenodd" clip-rule="evenodd" d="M28 54c14.36 0 26-11.64 26-26S42.36 2 28 2 2 13.64 2 28s11.64 26 26 26zm0 2c15.464 0 28-12.536 28-28S43.464 0 28 0 0 12.536 0 28s12.536 28 28 28z" fill="#008DD2"/></svg><svg fill="none" viewBox="0 0 162 18" id="logo-black" xmlns="http://www.w3.org/2000/svg"><path fill-rule="evenodd" clip-rule="evenodd" d="M12.39 5.187v12.231H6.195V5.187h6.195zM0 .6h6.195v4.587H0V.6z" fill="#D5ECF9"/><path fill-rule="evenodd" clip-rule="evenodd" d="M153.001 18c-2.615 0-5.576-.506-7.822-1.865l2.064-4.537c.497.28.972.525 1.507.74 1.573.635 3.599 1.061 5.305.836.365-.048 1.004-.16 1.004-.627 0-.557-.976-.736-1.4-.846-1.586-.409-3.101-.625-4.685-1.18-2.168-.76-3.461-2.368-3.461-4.636 0-1.093.318-2.103.954-3.005C148.051.635 151.164 0 153.79 0c1.199 0 2.38.126 3.542.378a11.57 11.57 0 013.268 1.214l-1.928 4.511c-1.571-.77-3.144-1.331-4.931-1.331-.713 0-1.24.08-1.581.24-.614.288-.573.878.087 1.127 1.643.621 3.709.74 5.52 1.363 2.183.753 3.512 2.322 3.512 4.613 0 1.09-.316 2.096-.955 2.994-1.592 2.236-4.694 2.891-7.323 2.891zM18.479.604h18.858v4.58H31.05v12.212h-6.286V5.184H18.48V.604zM114.863 18c-2.615 0-5.575-.506-7.821-1.865l2.063-4.537c.497.28.973.525 1.507.74 1.573.635 3.599 1.061 5.306.836.364-.048 1.004-.16 1.004-.627 0-.557-.976-.736-1.4-.846-1.586-.409-3.101-.625-4.685-1.18-2.168-.76-3.461-2.368-3.461-4.636 0-1.093.317-2.103.953-3.005C109.913.635 113.027 0 115.653 0c1.199 0 2.379.126 3.542.378a11.58 11.58 0 013.268 1.214l-1.929 4.511c-1.571-.77-3.144-1.331-4.93-1.331-.713 0-1.24.08-1.582.24-.613.288-.572.878.088 1.127 1.643.621 3.708.74 5.52 1.363 2.182.753 3.512 2.322 3.512 4.613 0 1.09-.317 2.096-.955 2.994-1.592 2.236-4.694 2.89-7.323 2.89l-.001.001zM138.295.604l-3.717 6.41-3.716-6.41h-6.914l7.488 12.213v4.58h6.285v-4.58L145.209.604h-6.914zm-68.883 9.923h3.482l-1.741-6.201-1.741 6.2zm4.767 4.58h-6.053l-.642 2.289h-6.286L65.912.604h10.482l4.714 16.792h-6.286l-.643-2.29zM97.082.603h6.286v16.792h-8.254l-4.475-7.543v7.543h-6.286V.604h7.084l5.645 9.514V.604zM55.519 12.169l2.379 5.227h-6.286l-2.084-4.58h-3.101v4.58H40.14V.604h12.571c3.457 0 6.286 2.748 6.286 6.106 0 2.38-1.42 4.453-3.48 5.46zM51.14 5.183h-4.714v3.054h4.714c.427 0 .819-.173 1.106-.452a1.5 1.5 0 00.465-1.075 1.5 1.5 0 00-.465-1.075 1.587 1.587 0 00-1.106-.452z" fill="#3C464E"/><path fill-rule="evenodd" clip-rule="evenodd" d="M18.585 5.187v12.231H12.39V5.187h6.195zM6.195.6h6.195v4.587H6.195V.6z" fill="#ACDBF1"/><path fill-rule="evenodd" clip-rule="evenodd" d="M24.78 5.187v12.231h-6.194V5.187h6.195zM12.39.6h6.196v4.587H12.39V.6z" fill="#008DD2"/></svg><svg fill="none" viewBox="0 0 215 24" id="logo-white" xmlns="http://www.w3.org/2000/svg"><path fill-rule="evenodd" clip-rule="evenodd" d="M16.517 6.914V23.22H8.26V6.914h8.258zM0 .8h8.259v6.114H0V.8z" fill="#003C5F"/><path fill-rule="evenodd" clip-rule="evenodd" d="M203.965 23.995c-3.487 0-7.433-.675-10.428-2.486l2.751-6.048c.663.374 1.297.7 2.009.987 2.097.846 4.798 1.414 7.073 1.114.486-.063 1.339-.214 1.339-.836 0-.742-1.301-.981-1.867-1.127-2.114-.545-4.134-.833-6.245-1.574-2.891-1.014-4.615-3.157-4.615-6.18 0-1.457.424-2.803 1.272-4.006C197.365.846 201.516 0 205.017 0c1.597 0 3.171.168 4.721.504 1.596.346 2.937.837 4.357 1.618l-2.57 6.014c-2.095-1.027-4.192-1.775-6.574-1.775-.951 0-1.653.107-2.108.32-.818.384-.764 1.17.116 1.502 2.191.829 4.944.987 7.358 1.818 2.911 1.003 4.683 3.095 4.683 6.15a6.741 6.741 0 01-1.273 3.99c-2.123 2.982-6.258 3.855-9.762 3.855zM24.635.805h25.14V6.91h-8.38v16.28h-8.38V6.91h-8.38V.805zm128.489 23.19c-3.487 0-7.433-.675-10.427-2.486l2.75-6.048c.663.374 1.298.7 2.01.987 2.097.846 4.798 1.414 7.072 1.114.486-.063 1.34-.214 1.34-.836 0-.742-1.302-.981-1.867-1.127-2.115-.545-4.134-.833-6.246-1.574-2.89-1.014-4.614-3.157-4.614-6.18 0-1.457.423-2.803 1.271-4.006C146.525.846 150.675 0 154.177 0c1.598 0 3.171.168 4.721.504 1.596.346 2.936.837 4.357 1.618l-2.571 6.014c-2.094-1.027-4.192-1.775-6.573-1.775-.951 0-1.654.107-2.109.32-.818.384-.763 1.17.117 1.502 2.191.829 4.944.987 7.358 1.818 2.91 1.003 4.683 3.095 4.683 6.15a6.748 6.748 0 01-1.273 3.99c-2.123 2.982-6.258 3.854-9.763 3.854zM184.36.805l-4.954 8.544-4.955-8.544h-9.217l9.982 16.28v6.105h8.379v-6.105l9.982-16.28h-9.217zM92.533 14.033h4.641l-2.32-8.266-2.32 8.266zm6.355 6.105H90.82l-.857 3.052h-8.379L87.868.805h13.972l6.285 22.385h-8.38l-.857-3.052zM129.42.805h8.379V23.19h-11.003l-5.966-10.055V23.19h-8.379V.805h9.444l7.524 12.683.001-12.683zM74.012 16.223l3.172 6.967h-8.38l-2.778-6.105h-4.134v6.105h-8.38V.805h16.76c4.607 0 8.378 3.663 8.378 8.14 0 3.173-1.894 5.936-4.638 7.278zM68.176 6.91h-6.284v4.07h6.284c.57 0 1.092-.23 1.474-.602a2 2 0 00.62-1.433 2 2 0 00-.62-1.433 2.116 2.116 0 00-1.474-.602z" fill="#fff"/><path fill-rule="evenodd" clip-rule="evenodd" d="M24.776 6.914V23.22h-8.259V6.914h8.259zM8.259.8h8.258v6.114H8.26V.8z" fill="#0A6397"/><path fill-rule="evenodd" clip-rule="evenodd" d="M33.034 6.914V23.22h-8.259V6.914h8.259zM16.517.8h8.259v6.114h-8.26V.8z" fill="#008DD2"/></svg><svg fill="none" viewBox="0 0 56 56" id="vehicle" xmlns="http://www.w3.org/2000/svg"><path fill-rule="evenodd" clip-rule="evenodd" d="M24.222 33.01a1.068 1.068 0 011.516 0 1.07 1.07 0 010 1.516 1.07 1.07 0 01-1.516 0 1.069 1.069 0 010-1.517zm18.263 0a1.068 1.068 0 011.516 0 1.07 1.07 0 010 1.516 1.07 1.07 0 01-1.516 0 1.07 1.07 0 010-1.517zm-27.173 2.956a3.1 3.1 0 01-.912-2.146h-1.467c-.436 0-.832-.177-1.118-.464a1.577 1.577 0 01-.464-1.117V18.987c0-.436.178-.832.464-1.118a1.577 1.577 0 011.118-.464h24.704c.436 0 .831.178 1.117.464.287.286.464.682.464 1.118v1.476h4.025c.436 0 .832.178 1.118.464a1.577 1.577 0 01-.003 2.238l.863 3.453a2.603 2.603 0 012.152 2.562v3.058a1.59 1.59 0 01-1.02 1.479l.001.05a3.1 3.1 0 01-.912 2.2 3.1 3.1 0 01-2.199.911 3.1 3.1 0 01-2.198-.912 3.1 3.1 0 01-.912-2.146H28.091a3.101 3.101 0 01-.912 2.146 3.101 3.101 0 01-2.198.912 3.101 3.101 0 01-2.199-.912 3.101 3.101 0 01-.911-2.146h-1.25a3.102 3.102 0 01-.911 2.146 3.101 3.101 0 01-2.199.912 3.1 3.1 0 01-2.198-.912h-.001zm3.99-4.738a3.12 3.12 0 011.128 1.467h1.63a3.116 3.116 0 012.92-2.038 3.12 3.12 0 012.92 2.039h10.194v-13.71a.456.456 0 00-.457-.457H12.933a.455.455 0 00-.457.457v13.252a.456.456 0 00.457.457h1.657a3.116 3.116 0 012.92-2.038 3.1 3.1 0 011.793.571zm-3.196 3.943a1.98 1.98 0 002.808 0 1.98 1.98 0 00.001-2.806 1.987 1.987 0 00-3.392 1.402c0 .547.223 1.044.583 1.404zm27.946-8.592l-.738-2.953h-4.096v2.157l1.08-1.079a.562.562 0 01.795.795l-1.08 1.08h4.04zm-.486-4.212a.456.456 0 00-.323-.78h-4.025v.915h4.025c.127 0 .24-.052.323-.134zm-19.99 12.804a1.98 1.98 0 002.807 0 1.981 1.981 0 00.002-2.806 1.986 1.986 0 10-2.81 2.805h.001zm18.263 0a1.98 1.98 0 002.808 0 1.981 1.981 0 00.001-2.806 1.987 1.987 0 00-3.392 1.401c0 .548.223 1.045.583 1.404zm3.153-3.973c.49.334.884.806 1.12 1.366a.449.449 0 00.136-.327v-2.495h-1.476a.56.56 0 01-.562-.563.56.56 0 01.562-.562h1.365a1.484 1.484 0 00-1.365-.914h-5.554v4.991h1.105a3.116 3.116 0 012.92-2.038c.642 0 1.246.199 1.75.541zm-2.656-2.416a.56.56 0 01.794 0 .56.56 0 01-.397.96.56.56 0 01-.397-.96zm-25.584 4.226a1.068 1.068 0 011.516 0c.194.194.314.462.314.759a1.068 1.068 0 01-1.072 1.072 1.07 1.07 0 01-1.073-1.072c0-.297.12-.565.314-.759z" fill="#003C5F"/><path d="M16.808 23.807v3.46c0 .149.052.275.155.378a.522.522 0 00.379.156.51.51 0 00.375-.156.515.515 0 00.155-.378v-3.46h1.132a.522.522 0 00.378-.155.51.51 0 00.156-.375.509.509 0 00-.156-.375.516.516 0 00-.378-.159h-3.325a.51.51 0 00-.378.16.512.512 0 00-.155.374.51.51 0 00.155.375c.104.103.23.155.378.155h1.129zm6.778.801a.77.77 0 01-.236.564.768.768 0 01-.564.233h-1.463v-1.598h1.463c.22 0 .408.08.564.237a.763.763 0 01.236.564zm-1.02 1.861l1.175 1.176a.51.51 0 00.375.156.522.522 0 00.379-.156.515.515 0 00.155-.378.51.51 0 00-.155-.375l-.713-.713c.265-.169.475-.39.628-.662.16-.282.24-.584.24-.909 0-.513-.182-.952-.547-1.317a1.796 1.796 0 00-1.317-.548h-1.994a.51.51 0 00-.378.16.51.51 0 00-.155.374v3.99c0 .149.051.275.155.378.103.104.23.156.378.156a.51.51 0 00.375-.156.514.514 0 00.156-.378v-.797h1.243zm3.288-3.692a.515.515 0 00-.253.193.52.52 0 00-.098.307v3.99c0 .149.051.275.155.379.104.103.23.155.379.155a.51.51 0 00.375-.155.514.514 0 00.155-.379v-2.52l2.385 2.861a.506.506 0 00.408.193.51.51 0 00.436-.227.52.52 0 00.098-.307v-3.99a.509.509 0 00-.155-.375.516.516 0 00-.379-.158.505.505 0 00-.374.159.512.512 0 00-.156.374v2.52l-2.385-2.86a.525.525 0 00-.27-.173.522.522 0 00-.32.014zm5.427 3.96a.514.514 0 00-.378.155.51.51 0 00-.156.375c0 .149.052.275.156.378.103.104.23.156.378.156h2.328c.421 0 .781-.15 1.08-.45.3-.299.45-.66.45-1.08 0-.422-.15-.782-.45-1.081-.3-.3-.659-.45-1.08-.45h-1.331a.445.445 0 01-.328-.135.453.453 0 01-.138-.331.44.44 0 01.138-.328c.09-.092.2-.138.328-.138h2.327a.522.522 0 00.379-.156.512.512 0 00.155-.375.51.51 0 00-.155-.375.516.516 0 00-.379-.158h-2.327c-.421 0-.782.15-1.081.45-.3.299-.45.659-.45 1.08 0 .424.15.784.45 1.081.3.3.66.45 1.08.45h1.332a.44.44 0 01.328.138c.092.09.138.199.138.327a.453.453 0 01-.139.332c-.09.09-.199.135-.327.135H31.28z" fill="#003C5F"/><path fill-rule="evenodd" clip-rule="evenodd" d="M28 54c14.36 0 26-11.64 26-26S42.36 2 28 2 2 13.64 2 28s11.64 26 26 26zm0 2c15.464 0 28-12.536 28-28S43.464 0 28 0 0 12.536 0 28s12.536 28 28 28z" fill="#008DD2"/></svg></svg>